<?xml version="1.0" encoding="UTF-8" standalone="no"?>
<svg
   xmlns:dc="http://purl.org/dc/elements/1.1/"
   xmlns:cc="http://creativecommons.org/ns#"
   xmlns:rdf="http://www.w3.org/1999/02/22-rdf-syntax-ns#"
   xmlns:svg="http://www.w3.org/2000/svg"
   xmlns="http://www.w3.org/2000/svg"
   xmlns:sodipodi="http://sodipodi.sourceforge.net/DTD/sodipodi-0.dtd"
   xmlns:inkscape="http://www.inkscape.org/namespaces/inkscape"
   inkscape:export-ydpi="576"
   inkscape:export-xdpi="576"
   inkscape:export-filename="D:\Project Real\November\export\filled line\png\6 - Fried chicken.png"
   width="64pt"
   height="64pt"
   viewBox="0 0 22.577778 22.577778"
   version="1.1"
   id="svg831"
   inkscape:version="1.0 (4035a4fb49, 2020-05-01)"
   sodipodi:docname="7 - Kebab.svg">
  <defs
     id="defs825">
    <pattern
       id="EMFhbasepattern"
       patternUnits="userSpaceOnUse"
       width="6"
       height="6"
       x="0"
       y="0" />
    <pattern
       id="EMFhbasepattern-9"
       patternUnits="userSpaceOnUse"
       width="6"
       height="6"
       x="0"
       y="0" />
    <pattern
       id="EMFhbasepattern-0"
       patternUnits="userSpaceOnUse"
       width="6"
       height="6"
       x="0"
       y="0" />
    <pattern
       id="EMFhbasepattern-7"
       patternUnits="userSpaceOnUse"
       width="6"
       height="6"
       x="0"
       y="0" />
    <pattern
       id="EMFhbasepattern-2"
       patternUnits="userSpaceOnUse"
       width="6"
       height="6"
       x="0"
       y="0" />
    <pattern
       id="EMFhbasepattern-98"
       patternUnits="userSpaceOnUse"
       width="6"
       height="6"
       x="0"
       y="0" />
    <pattern
       id="EMFhbasepattern-6"
       patternUnits="userSpaceOnUse"
       width="6"
       height="6"
       x="0"
       y="0" />
    <pattern
       id="EMFhbasepattern-01"
       patternUnits="userSpaceOnUse"
       width="6"
       height="6"
       x="0"
       y="0" />
    <pattern
       id="EMFhbasepattern-07"
       patternUnits="userSpaceOnUse"
       width="6"
       height="6"
       x="0"
       y="0" />
    <pattern
       id="EMFhbasepattern-8"
       patternUnits="userSpaceOnUse"
       width="6"
       height="6"
       x="0"
       y="0" />
    <pattern
       id="EMFhbasepattern-4"
       patternUnits="userSpaceOnUse"
       width="6"
       height="6"
       x="0"
       y="0" />
    <pattern
       id="EMFhbasepattern-40"
       patternUnits="userSpaceOnUse"
       width="6"
       height="6"
       x="0"
       y="0" />
    <pattern
       id="EMFhbasepattern-08"
       patternUnits="userSpaceOnUse"
       width="6"
       height="6"
       x="0"
       y="0" />
    <pattern
       id="EMFhbasepattern-04"
       patternUnits="userSpaceOnUse"
       width="6"
       height="6"
       x="0"
       y="0" />
    <pattern
       id="EMFhbasepattern-014"
       patternUnits="userSpaceOnUse"
       width="6"
       height="6"
       x="0"
       y="0" />
    <pattern
       id="EMFhbasepattern-27"
       patternUnits="userSpaceOnUse"
       width="6"
       height="6"
       x="0"
       y="0" />
    <pattern
       id="EMFhbasepattern-09"
       patternUnits="userSpaceOnUse"
       width="6"
       height="6"
       x="0"
       y="0" />
    <pattern
       id="EMFhbasepattern-5"
       patternUnits="userSpaceOnUse"
       width="6"
       height="6"
       x="0"
       y="0" />
    <pattern
       id="EMFhbasepattern-018"
       patternUnits="userSpaceOnUse"
       width="6"
       height="6"
       x="0"
       y="0" />
  </defs>
  <sodipodi:namedview
     id="base"
     pagecolor="#ffffff"
     bordercolor="#666666"
     borderopacity="1.0"
     inkscape:pageopacity="0.0"
     inkscape:pageshadow="2"
     inkscape:zoom="6.2578125"
     inkscape:cx="42.666667"
     inkscape:cy="42.666667"
     inkscape:document-units="pt"
     inkscape:current-layer="layer1"
     showgrid="false"
     units="pt"
     inkscape:window-width="1366"
     inkscape:window-height="706"
     inkscape:window-x="-8"
     inkscape:window-y="-8"
     inkscape:window-maximized="1"
     inkscape:pagecheckerboard="true"
     inkscape:showpageshadow="false"
     inkscape:object-paths="true"
     inkscape:snap-intersection-paths="true"
     inkscape:snap-smooth-nodes="true"
     inkscape:snap-midpoints="true"
     showguides="true"
     inkscape:snap-bbox="true"
     inkscape:bbox-nodes="true"
     inkscape:snap-nodes="false"
     inkscape:snap-global="true"
     inkscape:document-rotation="0">
    <inkscape:grid
       type="xygrid"
       id="grid1378" />
    <sodipodi:guide
       position="0.97013831,21.607643"
       orientation="78.000048,0"
       id="guide1380"
       inkscape:locked="false" />
    <sodipodi:guide
       position="0.97013831,0.97013129"
       orientation="0,78.000005"
       id="guide1382"
       inkscape:locked="false" />
    <sodipodi:guide
       position="21.607639,0.97013129"
       orientation="-78.000048,0"
       id="guide1384"
       inkscape:locked="false" />
    <sodipodi:guide
       position="21.607639,21.607643"
       orientation="0,-78.000005"
       id="guide1386"
       inkscape:locked="false" />
  </sodipodi:namedview>
  <metadata
     id="metadata828">
    <rdf:RDF>
      <cc:Work
         rdf:about="">
        <dc:format>image/svg+xml</dc:format>
        <dc:type
           rdf:resource="http://purl.org/dc/dcmitype/StillImage" />
        <dc:title></dc:title>
      </cc:Work>
    </rdf:RDF>
  </metadata>
  <g
     inkscape:label="Icon"
     inkscape:groupmode="layer"
     id="layer1"
     transform="translate(0,-274.42223)">
    <g
       transform="matrix(1.2582144,0,0,1.2582144,39.014683,-77.325039)"
       style="display:inline;stroke-width:0.794777"
       id="g699">
      <g
         style="stroke-width:0.794777"
         id="g388">
        <path
           id="path345"
           d="m -20.128906,280.33203 c -0.342912,0 -0.604285,0.23954 -0.775391,0.52149 -0.171106,0.28194 -0.288071,0.63302 -0.380859,1.00781 -0.185578,0.74957 -0.26778,1.59972 -0.330078,2.05078 -0.01083,0.0821 0.01736,0.16444 0.07617,0.22266 l 3.902343,3.8789 c 0.05859,0.0581 0.140929,0.0855 0.222657,0.0742 0.476368,-0.0687 1.324052,-0.2011 2.072265,-0.43945 0.374107,-0.11918 0.724671,-0.26213 1.001953,-0.45508 0.277282,-0.19295 0.503895,-0.46418 0.503906,-0.80859 1.6e-5,-0.4477 -0.331428,-0.74611 -0.591796,-1.05079 -0.260369,-0.30467 -0.466798,-0.59363 -0.466797,-0.84375 -1e-6,-0.36371 0.282934,-1.07677 0.511719,-1.75 0.114392,-0.33661 0.215046,-0.66893 0.24414,-0.98437 0.02909,-0.31544 -0.01745,-0.643 -0.25,-0.875 -0.231102,-0.23056 -0.555752,-0.27594 -0.867187,-0.24609 -0.311435,0.0298 -0.638239,0.12937 -0.96875,0.24414 -0.661023,0.34163 -1.381321,0.57899 -1.720703,0.51171 -0.268422,0 -0.601,-0.21314 -0.958985,-0.47656 -0.357984,-0.26342 -0.738008,-0.58203 -1.224609,-0.58203 z"
           style="color:#000000;font-style:normal;font-variant:normal;font-weight:normal;font-stretch:normal;font-size:medium;line-height:normal;font-family:sans-serif;font-variant-ligatures:normal;font-variant-position:normal;font-variant-caps:normal;font-variant-numeric:normal;font-variant-alternates:normal;font-variant-east-asian:normal;font-feature-settings:normal;font-variation-settings:normal;text-indent:0;text-align:start;text-decoration:none;text-decoration-line:none;text-decoration-style:solid;text-decoration-color:#000000;letter-spacing:normal;word-spacing:normal;text-transform:none;writing-mode:lr-tb;direction:ltr;text-orientation:mixed;dominant-baseline:auto;baseline-shift:baseline;text-anchor:start;white-space:normal;shape-padding:0;shape-margin:0;inline-size:0;clip-rule:nonzero;display:inline;overflow:visible;visibility:visible;isolation:auto;mix-blend-mode:normal;color-interpolation:sRGB;color-interpolation-filters:linearRGB;solid-color:#000000;solid-opacity:1;vector-effect:none;fill:#50b86b;fill-opacity:1;fill-rule:nonzero;stroke:none;stroke-width:0.42057;stroke-linecap:round;stroke-linejoin:round;stroke-miterlimit:1.5;stroke-dasharray:none;stroke-dashoffset:0;stroke-opacity:1;color-rendering:auto;image-rendering:auto;shape-rendering:auto;text-rendering:auto;enable-background:accumulate;stop-color:#000000"
           sodipodi:nodetypes="ccccccccsscsscccccscc" />
        <path
           id="path451"
           d="m -16.837891,282.16992 c -0.0339,-10e-4 -0.06771,0.004 -0.09961,0.0156 l -0.449219,0.15429 c -0.113517,0.04 -0.185748,0.15155 -0.175781,0.27149 0.02024,0.25254 -0.07063,0.3104 -0.164062,0.33594 -0.09343,0.0255 -0.216822,-0.002 -0.298829,-0.15235 -0.05829,-0.10638 -0.181448,-0.15951 -0.298828,-0.1289 l -2.474609,0.63867 c -0.01131,0.003 -0.0224,0.007 -0.0332,0.0117 -0.24911,0.1007 -0.499928,0.23569 -0.707031,0.45703 -0.09838,0.10432 -0.09576,0.26802 0.0059,0.36914 l 3.673828,3.65039 c 0.100861,0.10043 0.263098,0.10308 0.367187,0.006 l 1.587891,-1.49219 c 6.7e-4,-6.6e-4 0.0013,-0.001 0.002,-0.002 0.363062,-0.34365 0.36839,-0.83748 0.236558,-1.29977 -0.227054,-0.009 -0.118212,-0.0171 -0.0098,-0.0254 l -0.929917,-2.64359 c -0.03839,-0.096 -0.129168,-0.16084 -0.232422,-0.16602 z"
           style="color:#000000;font-style:normal;font-variant:normal;font-weight:normal;font-stretch:normal;font-size:medium;line-height:normal;font-family:sans-serif;font-variant-ligatures:normal;font-variant-position:normal;font-variant-caps:normal;font-variant-numeric:normal;font-variant-alternates:normal;font-variant-east-asian:normal;font-feature-settings:normal;font-variation-settings:normal;text-indent:0;text-align:start;text-decoration:none;text-decoration-line:none;text-decoration-style:solid;text-decoration-color:#000000;letter-spacing:normal;word-spacing:normal;text-transform:none;writing-mode:lr-tb;direction:ltr;text-orientation:mixed;dominant-baseline:auto;baseline-shift:baseline;text-anchor:start;white-space:normal;shape-padding:0;shape-margin:0;inline-size:0;clip-rule:nonzero;display:inline;overflow:visible;visibility:visible;isolation:auto;mix-blend-mode:normal;color-interpolation:sRGB;color-interpolation-filters:linearRGB;solid-color:#000000;solid-opacity:1;vector-effect:none;fill:#fed883;fill-opacity:1;fill-rule:nonzero;stroke:none;stroke-width:0.42057;stroke-linecap:round;stroke-linejoin:round;stroke-miterlimit:1.5;stroke-dasharray:none;stroke-dashoffset:0;stroke-opacity:1;color-rendering:auto;image-rendering:auto;shape-rendering:auto;text-rendering:auto;enable-background:accumulate;stop-color:#000000"
           sodipodi:nodetypes="cccccccccccccccccccc" />
        <path
           id="path442"
           d="m -17.984375,283.74023 c -0.456685,-0.0971 -0.909944,0.20268 -1.003906,0.66016 a 0.2645835,0.2645835 0 0 0 0.205078,0.3125 0.2645835,0.2645835 0 0 0 0.3125,-0.20703 c 0.03666,-0.17848 0.201114,-0.28543 0.376953,-0.24805 0.175903,0.0374 0.286652,0.20825 0.25,0.38672 a 0.2645835,0.2645835 0 0 0 0.207031,0.3125 0.2645835,0.2645835 0 0 0 0.3125,-0.20703 c 0.09395,-0.45749 -0.203543,-0.9126 -0.660156,-1.00977 z"
           style="color:#000000;font-style:normal;font-variant:normal;font-weight:normal;font-stretch:normal;font-size:medium;line-height:normal;font-family:sans-serif;font-variant-ligatures:normal;font-variant-position:normal;font-variant-caps:normal;font-variant-numeric:normal;font-variant-alternates:normal;font-variant-east-asian:normal;font-feature-settings:normal;font-variation-settings:normal;text-indent:0;text-align:start;text-decoration:none;text-decoration-line:none;text-decoration-style:solid;text-decoration-color:#000000;letter-spacing:normal;word-spacing:normal;text-transform:none;writing-mode:lr-tb;direction:ltr;text-orientation:mixed;dominant-baseline:auto;baseline-shift:baseline;text-anchor:start;white-space:normal;shape-padding:0;shape-margin:0;inline-size:0;clip-rule:nonzero;display:inline;overflow:visible;visibility:visible;opacity:1;isolation:auto;mix-blend-mode:normal;color-interpolation:sRGB;color-interpolation-filters:linearRGB;solid-color:#000000;solid-opacity:1;vector-effect:none;fill:#fff79c;fill-opacity:1;fill-rule:nonzero;stroke:none;stroke-width:0.42057;stroke-linecap:round;stroke-linejoin:round;stroke-miterlimit:1.5;stroke-dasharray:none;stroke-dashoffset:0;stroke-opacity:1;color-rendering:auto;image-rendering:auto;shape-rendering:auto;text-rendering:auto;enable-background:accumulate;stop-color:#000000;stop-opacity:1" />
        <path
           id="path428"
           d="m -20.216797,283.21289 c -0.474544,0 -0.948061,0.18048 -1.308594,0.54102 a 0.26460996,0.26460996 0 0 0 0,0.37304 l 2.244141,2.2461 a 0.26460996,0.26460996 0 0 0 0.375,0 c 0.721068,-0.72106 0.721067,-1.89807 0,-2.61914 -0.360534,-0.36054 -0.836003,-0.54102 -1.310547,-0.54102 z"
           style="color:#000000;font-style:normal;font-variant:normal;font-weight:normal;font-stretch:normal;font-size:medium;line-height:normal;font-family:sans-serif;font-variant-ligatures:normal;font-variant-position:normal;font-variant-caps:normal;font-variant-numeric:normal;font-variant-alternates:normal;font-variant-east-asian:normal;font-feature-settings:normal;font-variation-settings:normal;text-indent:0;text-align:start;text-decoration:none;text-decoration-line:none;text-decoration-style:solid;text-decoration-color:#000000;letter-spacing:normal;word-spacing:normal;text-transform:none;writing-mode:lr-tb;direction:ltr;text-orientation:mixed;dominant-baseline:auto;baseline-shift:baseline;text-anchor:start;white-space:normal;shape-padding:0;shape-margin:0;inline-size:0;clip-rule:nonzero;display:inline;overflow:visible;visibility:visible;isolation:auto;mix-blend-mode:normal;color-interpolation:sRGB;color-interpolation-filters:linearRGB;solid-color:#000000;solid-opacity:1;vector-effect:none;fill:#ee8eb4;fill-opacity:1;fill-rule:nonzero;stroke:none;stroke-width:0.42057;stroke-linecap:round;stroke-linejoin:round;stroke-miterlimit:1.5;stroke-dasharray:none;stroke-dashoffset:0;stroke-opacity:1;color-rendering:auto;image-rendering:auto;shape-rendering:auto;text-rendering:auto;enable-background:accumulate;stop-color:#000000" />
        <path
           id="path413"
           d="m -20.590202,284.68863 c 0.206655,-0.20665 0.5417,-0.20664 0.74835,1e-5 0.206651,0.20665 0.206654,0.54169 5e-6,0.74835 z"
           style="color:#000000;font-style:normal;font-variant:normal;font-weight:normal;font-stretch:normal;font-size:medium;line-height:normal;font-family:sans-serif;font-variant-ligatures:normal;font-variant-position:normal;font-variant-caps:normal;font-variant-numeric:normal;font-variant-alternates:normal;font-variant-east-asian:normal;font-feature-settings:normal;font-variation-settings:normal;text-indent:0;text-align:start;text-decoration:none;text-decoration-line:none;text-decoration-style:solid;text-decoration-color:#000000;letter-spacing:normal;word-spacing:normal;text-transform:none;writing-mode:lr-tb;direction:ltr;text-orientation:mixed;dominant-baseline:auto;baseline-shift:baseline;text-anchor:start;white-space:normal;shape-padding:0;shape-margin:0;inline-size:0;clip-rule:nonzero;display:inline;overflow:visible;visibility:visible;isolation:auto;mix-blend-mode:normal;color-interpolation:sRGB;color-interpolation-filters:linearRGB;solid-color:#000000;solid-opacity:1;vector-effect:none;fill:#f4b8d0;fill-opacity:1;fill-rule:nonzero;stroke:none;stroke-width:0.42057;stroke-linecap:round;stroke-linejoin:round;stroke-miterlimit:1.5;stroke-dasharray:none;stroke-dashoffset:0;stroke-opacity:1;color-rendering:auto;image-rendering:auto;shape-rendering:auto;text-rendering:auto;enable-background:accumulate;stop-color:#000000" />
        <path
           id="path360"
           d="m -15.866382,284.4596 c -0.514415,-0.51442 -1.356934,-0.51303 -1.871348,10e-4 l -1.542653,1.53712 c -0.103761,0.10296 -0.104388,0.27054 -0.0014,0.37427 l 1.434929,1.43493 c 0.102034,0.10148 0.266463,0.10281 0.370129,0.003 l 1.564749,-1.49569 c 0.493169,-0.5715 0.447876,-1.34036 0.04558,-1.85478 z"
           style="color:#000000;font-style:normal;font-variant:normal;font-weight:normal;font-stretch:normal;font-size:medium;line-height:normal;font-family:sans-serif;font-variant-ligatures:normal;font-variant-position:normal;font-variant-caps:normal;font-variant-numeric:normal;font-variant-alternates:normal;font-variant-east-asian:normal;font-feature-settings:normal;font-variation-settings:normal;text-indent:0;text-align:start;text-decoration:none;text-decoration-line:none;text-decoration-style:solid;text-decoration-color:#000000;letter-spacing:normal;word-spacing:normal;text-transform:none;writing-mode:lr-tb;direction:ltr;text-orientation:mixed;dominant-baseline:auto;baseline-shift:baseline;text-anchor:start;white-space:normal;shape-padding:0;shape-margin:0;inline-size:0;clip-rule:nonzero;display:inline;overflow:visible;visibility:visible;isolation:auto;mix-blend-mode:normal;color-interpolation:sRGB;color-interpolation-filters:linearRGB;solid-color:#000000;solid-opacity:1;vector-effect:none;fill:#ed816e;fill-opacity:1;fill-rule:nonzero;stroke:none;stroke-width:0.42057;stroke-linecap:round;stroke-linejoin:round;stroke-miterlimit:1.5;stroke-dasharray:none;stroke-dashoffset:0;stroke-opacity:1;color-rendering:auto;image-rendering:auto;shape-rendering:auto;text-rendering:auto;enable-background:accumulate;stop-color:#000000"
           sodipodi:nodetypes="ccccccccc" />
        <path
           id="path343"
           style="fill:#e56651;fill-opacity:1;stroke-width:1.58955;stroke-linecap:round;stroke-linejoin:round;stroke-miterlimit:1.5"
           d="m -63.503906,15.148438 c -1.282142,0.0011 -2.564989,0.487589 -3.53711,1.458984 l -0.558593,0.55664 c 7.657443,2.603442 3.493365,6.299136 0.0039,10.521485 -0.283408,0.342933 -0.284306,0.769339 -0.304688,1.121094 l 0.447266,0.447265 c 0.385481,0.383345 1.006586,0.38855 1.398437,0.01172 l 5.914063,-5.652344 c 1.863946,-2.160001 1.694317,-4.980754 0.173828,-7.009765 -0.824437,-1.100168 -2.254967,-1.456208 -3.537109,-1.455078 z"
           transform="matrix(0.26458334,0,0,0.26458334,0,280.06666)"
           sodipodi:nodetypes="sccsccccsss" />
        <path
           transform="matrix(0.26458334,0,0,0.26458334,0,280.06666)"
           d="m -66.333984,21.970703 c -0.255997,6.85e-4 -0.512273,0.09903 -0.707032,0.294922 -0.387288,0.389972 -0.387292,1.018231 0,1.408203 l 3.273438,3.40625 1.445312,-1.382812 -3.302734,-3.435547 c -0.195802,-0.194854 -0.452988,-0.291701 -0.708984,-0.291016 z"
           style="color:#000000;font-style:normal;font-variant:normal;font-weight:normal;font-stretch:normal;font-size:medium;line-height:normal;font-family:sans-serif;font-variant-ligatures:normal;font-variant-position:normal;font-variant-caps:normal;font-variant-numeric:normal;font-variant-alternates:normal;font-variant-east-asian:normal;font-feature-settings:normal;font-variation-settings:normal;text-indent:0;text-align:start;text-decoration:none;text-decoration-line:none;text-decoration-style:solid;text-decoration-color:#000000;letter-spacing:normal;word-spacing:normal;text-transform:none;writing-mode:lr-tb;direction:ltr;text-orientation:mixed;dominant-baseline:auto;baseline-shift:baseline;text-anchor:start;white-space:normal;shape-padding:0;shape-margin:0;inline-size:0;clip-rule:nonzero;display:inline;overflow:visible;visibility:visible;isolation:auto;mix-blend-mode:normal;color-interpolation:sRGB;color-interpolation-filters:linearRGB;solid-color:#000000;solid-opacity:1;vector-effect:none;fill:#e65238;fill-opacity:1;fill-rule:nonzero;stroke:none;stroke-width:1.58955;stroke-linecap:round;stroke-linejoin:round;stroke-miterlimit:1.5;stroke-dasharray:none;stroke-dashoffset:0;stroke-opacity:1;color-rendering:auto;image-rendering:auto;shape-rendering:auto;text-rendering:auto;enable-background:accumulate;stop-color:#000000"
           id="path372" />
        <path
           id="path329"
           d="m -21.345703,283.67969 a 0.26460996,0.26460996 0 0 0 -0.177735,0.0781 l -7.808593,7.80664 c -1.201179,1.20118 -1.202551,3.11777 -0.02734,4.29297 1.175208,1.17522 3.089847,1.17188 4.291016,-0.0293 l 7.808593,-7.80664 a 0.26460996,0.26460996 0 0 0 0,-0.375 l -3.888672,-3.88867 a 0.26460996,0.26460996 0 0 0 -0.197265,-0.0781 z"
           style="color:#000000;font-style:normal;font-variant:normal;font-weight:normal;font-stretch:normal;font-size:medium;line-height:normal;font-family:sans-serif;font-variant-ligatures:normal;font-variant-position:normal;font-variant-caps:normal;font-variant-numeric:normal;font-variant-alternates:normal;font-variant-east-asian:normal;font-feature-settings:normal;font-variation-settings:normal;text-indent:0;text-align:start;text-decoration:none;text-decoration-line:none;text-decoration-style:solid;text-decoration-color:#000000;letter-spacing:normal;word-spacing:normal;text-transform:none;writing-mode:lr-tb;direction:ltr;text-orientation:mixed;dominant-baseline:auto;baseline-shift:baseline;text-anchor:start;white-space:normal;shape-padding:0;shape-margin:0;inline-size:0;clip-rule:nonzero;display:inline;overflow:visible;visibility:visible;isolation:auto;mix-blend-mode:normal;color-interpolation:sRGB;color-interpolation-filters:linearRGB;solid-color:#000000;solid-opacity:1;vector-effect:none;fill:#feefc8;fill-opacity:1;fill-rule:nonzero;stroke:none;stroke-width:0.42057;stroke-linecap:round;stroke-linejoin:round;stroke-miterlimit:1.5;stroke-dasharray:none;stroke-dashoffset:0;stroke-opacity:1;color-rendering:auto;image-rendering:auto;shape-rendering:auto;text-rendering:auto;enable-background:accumulate;stop-color:#000000" />
        <path
           style="color:#000000;font-style:normal;font-variant:normal;font-weight:normal;font-stretch:normal;font-size:medium;line-height:normal;font-family:sans-serif;font-variant-ligatures:normal;font-variant-position:normal;font-variant-caps:normal;font-variant-numeric:normal;font-variant-alternates:normal;font-variant-east-asian:normal;font-feature-settings:normal;font-variation-settings:normal;text-indent:0;text-align:start;text-decoration:none;text-decoration-line:none;text-decoration-style:solid;text-decoration-color:#000000;letter-spacing:normal;word-spacing:normal;text-transform:none;writing-mode:lr-tb;direction:ltr;text-orientation:mixed;dominant-baseline:auto;baseline-shift:baseline;text-anchor:start;white-space:normal;shape-padding:0;shape-margin:0;inline-size:0;clip-rule:nonzero;display:inline;overflow:visible;visibility:visible;isolation:auto;mix-blend-mode:normal;color-interpolation:sRGB;color-interpolation-filters:linearRGB;solid-color:#000000;solid-opacity:1;vector-effect:none;fill:#fed883;fill-opacity:1;fill-rule:nonzero;stroke:none;stroke-width:0.42057;stroke-linecap:round;stroke-linejoin:round;stroke-miterlimit:1.5;stroke-dasharray:none;stroke-dashoffset:0;stroke-opacity:1;color-rendering:auto;image-rendering:auto;shape-rendering:auto;text-rendering:auto;enable-background:accumulate;stop-color:#000000"
           d="m -27.855974,292.50299 a 0.2645835,0.2645835 0 0 0 -0.265625,0.26367 0.2645835,0.2645835 0 0 0 0.265625,0.26563 0.2645835,0.2645835 0 0 0 0.263672,-0.26563 0.2645835,0.2645835 0 0 0 -0.263672,-0.26367 z"
           id="path1178" />
        <path
           id="path1181"
           d="m -24.151937,288.26966 a 0.2645835,0.2645835 0 0 0 -0.265625,0.26367 0.2645835,0.2645835 0 0 0 0.265625,0.26563 0.2645835,0.2645835 0 0 0 0.263671,-0.26563 0.2645835,0.2645835 0 0 0 -0.263671,-0.26367 z"
           style="color:#000000;font-style:normal;font-variant:normal;font-weight:normal;font-stretch:normal;font-size:medium;line-height:normal;font-family:sans-serif;font-variant-ligatures:normal;font-variant-position:normal;font-variant-caps:normal;font-variant-numeric:normal;font-variant-alternates:normal;font-variant-east-asian:normal;font-feature-settings:normal;font-variation-settings:normal;text-indent:0;text-align:start;text-decoration:none;text-decoration-line:none;text-decoration-style:solid;text-decoration-color:#000000;letter-spacing:normal;word-spacing:normal;text-transform:none;writing-mode:lr-tb;direction:ltr;text-orientation:mixed;dominant-baseline:auto;baseline-shift:baseline;text-anchor:start;white-space:normal;shape-padding:0;shape-margin:0;inline-size:0;clip-rule:nonzero;display:inline;overflow:visible;visibility:visible;isolation:auto;mix-blend-mode:normal;color-interpolation:sRGB;color-interpolation-filters:linearRGB;solid-color:#000000;solid-opacity:1;vector-effect:none;fill:#fed883;fill-opacity:1;fill-rule:nonzero;stroke:none;stroke-width:0.42057;stroke-linecap:round;stroke-linejoin:round;stroke-miterlimit:1.5;stroke-dasharray:none;stroke-dashoffset:0;stroke-opacity:1;color-rendering:auto;image-rendering:auto;shape-rendering:auto;text-rendering:auto;enable-background:accumulate;stop-color:#000000" />
        <path
           id="path338"
           style="fill:#e75f96;fill-opacity:1;stroke-width:1.58955;stroke-linecap:round;stroke-linejoin:round;stroke-miterlimit:1.5"
           d="m -76.410156,11.890625 c -0.206608,0 -0.413283,0.01315 -0.619141,0.03125 6.020633,2.675674 3.373596,7.512244 3.029297,10.787109 l 1.126953,1.126954 a 1.0001006,1.0001006 0 0 0 1.416016,0 c 2.725296,-2.725267 2.725292,-7.175087 0,-9.900391 -1.362648,-1.362671 -3.159573,-2.044922 -4.953125,-2.044922 z"
           transform="matrix(0.26458334,0,0,0.26458334,0,280.06666)" />
        <path
           id="path326"
           style="fill:#fec872;fill-opacity:1;stroke-width:1.58955;stroke-linecap:round;stroke-linejoin:round;stroke-miterlimit:1.5"
           d="m -80.675781,13.65625 a 1.0001006,1.0001006 0 0 0 -0.671875,0.294922 c 1.301767,18.56118 -3.487468,31.739198 -23.568364,39.269531 -2.44814,0.918041 -6.18676,0.477842 -8.85546,1.792969 0.52625,1.711178 1.45798,3.319328 2.80664,4.667969 4.44173,4.441776 11.678895,4.428564 16.218746,-0.111329 l 29.511719,-29.505859 a 1.0001006,1.0001006 0 0 0 0,-1.416015 L -79.931641,13.951172 a 1.0001006,1.0001006 0 0 0 -0.74414,-0.294922 z"
           transform="matrix(0.26458334,0,0,0.26458334,0,280.06666)" />
        <path
           style="color:#000000;font-style:normal;font-variant:normal;font-weight:normal;font-stretch:normal;font-size:medium;line-height:normal;font-family:sans-serif;font-variant-ligatures:normal;font-variant-position:normal;font-variant-caps:normal;font-variant-numeric:normal;font-variant-alternates:normal;font-variant-east-asian:normal;font-feature-settings:normal;font-variation-settings:normal;text-indent:0;text-align:start;text-decoration:none;text-decoration-line:none;text-decoration-style:solid;text-decoration-color:#000000;letter-spacing:normal;word-spacing:normal;text-transform:none;writing-mode:lr-tb;direction:ltr;text-orientation:mixed;dominant-baseline:auto;baseline-shift:baseline;text-anchor:start;white-space:normal;shape-padding:0;shape-margin:0;inline-size:0;clip-rule:nonzero;display:inline;overflow:visible;visibility:visible;isolation:auto;mix-blend-mode:normal;color-interpolation:sRGB;color-interpolation-filters:linearRGB;solid-color:#000000;solid-opacity:1;vector-effect:none;fill:#fed883;fill-opacity:1;fill-rule:nonzero;stroke:none;stroke-width:0.42057;stroke-linecap:round;stroke-linejoin:round;stroke-miterlimit:1.5;stroke-dasharray:none;stroke-dashoffset:0;stroke-opacity:1;color-rendering:auto;image-rendering:auto;shape-rendering:auto;text-rendering:auto;enable-background:accumulate;stop-color:#000000"
           d="m -20.713266,288.00403 a 0.2645835,0.2645835 0 0 0 -0.265625,0.26367 0.2645835,0.2645835 0 0 0 0.265625,0.26563 0.2645835,0.2645835 0 0 0 0.263672,-0.26563 0.2645835,0.2645835 0 0 0 -0.263672,-0.26367 z"
           id="path1174" />
        <path
           id="path1176"
           d="m -24.945555,293.03111 a 0.2645835,0.2645835 0 0 0 -0.265625,0.26367 0.2645835,0.2645835 0 0 0 0.265625,0.26563 0.2645835,0.2645835 0 0 0 0.263671,-0.26563 0.2645835,0.2645835 0 0 0 -0.263671,-0.26367 z"
           style="color:#000000;font-style:normal;font-variant:normal;font-weight:normal;font-stretch:normal;font-size:medium;line-height:normal;font-family:sans-serif;font-variant-ligatures:normal;font-variant-position:normal;font-variant-caps:normal;font-variant-numeric:normal;font-variant-alternates:normal;font-variant-east-asian:normal;font-feature-settings:normal;font-variation-settings:normal;text-indent:0;text-align:start;text-decoration:none;text-decoration-line:none;text-decoration-style:solid;text-decoration-color:#000000;letter-spacing:normal;word-spacing:normal;text-transform:none;writing-mode:lr-tb;direction:ltr;text-orientation:mixed;dominant-baseline:auto;baseline-shift:baseline;text-anchor:start;white-space:normal;shape-padding:0;shape-margin:0;inline-size:0;clip-rule:nonzero;display:inline;overflow:visible;visibility:visible;isolation:auto;mix-blend-mode:normal;color-interpolation:sRGB;color-interpolation-filters:linearRGB;solid-color:#000000;solid-opacity:1;vector-effect:none;fill:#fed883;fill-opacity:1;fill-rule:nonzero;stroke:none;stroke-width:0.42057;stroke-linecap:round;stroke-linejoin:round;stroke-miterlimit:1.5;stroke-dasharray:none;stroke-dashoffset:0;stroke-opacity:1;color-rendering:auto;image-rendering:auto;shape-rendering:auto;text-rendering:auto;enable-background:accumulate;stop-color:#000000" />
        <path
           style="color:#000000;font-style:normal;font-variant:normal;font-weight:normal;font-stretch:normal;font-size:medium;line-height:normal;font-family:sans-serif;font-variant-ligatures:normal;font-variant-position:normal;font-variant-caps:normal;font-variant-numeric:normal;font-variant-alternates:normal;font-variant-east-asian:normal;font-feature-settings:normal;font-variation-settings:normal;text-indent:0;text-align:start;text-decoration:none;text-decoration-line:none;text-decoration-style:solid;text-decoration-color:#000000;letter-spacing:normal;word-spacing:normal;text-transform:none;writing-mode:lr-tb;direction:ltr;text-orientation:mixed;dominant-baseline:auto;baseline-shift:baseline;text-anchor:start;white-space:normal;shape-padding:0;shape-margin:0;inline-size:0;clip-rule:nonzero;display:inline;overflow:visible;visibility:visible;isolation:auto;mix-blend-mode:normal;color-interpolation:sRGB;color-interpolation-filters:linearRGB;solid-color:#000000;solid-opacity:1;vector-effect:none;fill:#fed883;fill-opacity:1;fill-rule:nonzero;stroke:none;stroke-width:0.42057;stroke-linecap:round;stroke-linejoin:round;stroke-miterlimit:1.5;stroke-dasharray:none;stroke-dashoffset:0;stroke-opacity:1;color-rendering:auto;image-rendering:auto;shape-rendering:auto;text-rendering:auto;enable-background:accumulate;stop-color:#000000"
           d="m -21.242432,289.06236 a 0.2645835,0.2645835 0 0 0 -0.265625,0.26367 0.2645835,0.2645835 0 0 0 0.265625,0.26563 0.2645835,0.2645835 0 0 0 0.263671,-0.26563 0.2645835,0.2645835 0 0 0 -0.263671,-0.26367 z"
           id="path1183" />
        <path
           style="color:#000000;font-style:normal;font-variant:normal;font-weight:normal;font-stretch:normal;font-size:medium;line-height:normal;font-family:sans-serif;font-variant-ligatures:normal;font-variant-position:normal;font-variant-caps:normal;font-variant-numeric:normal;font-variant-alternates:normal;font-variant-east-asian:normal;font-feature-settings:normal;font-variation-settings:normal;text-indent:0;text-align:start;text-decoration:none;text-decoration-line:none;text-decoration-style:solid;text-decoration-color:#000000;letter-spacing:normal;word-spacing:normal;text-transform:none;writing-mode:lr-tb;direction:ltr;text-orientation:mixed;dominant-baseline:auto;baseline-shift:baseline;text-anchor:start;white-space:normal;shape-padding:0;shape-margin:0;inline-size:0;clip-rule:nonzero;display:inline;overflow:visible;visibility:visible;isolation:auto;mix-blend-mode:normal;color-interpolation:sRGB;color-interpolation-filters:linearRGB;solid-color:#000000;solid-opacity:1;vector-effect:none;fill:#fed883;fill-opacity:1;fill-rule:nonzero;stroke:none;stroke-width:0.42057;stroke-linecap:round;stroke-linejoin:round;stroke-miterlimit:1.5;stroke-dasharray:none;stroke-dashoffset:0;stroke-opacity:1;color-rendering:auto;image-rendering:auto;shape-rendering:auto;text-rendering:auto;enable-background:accumulate;stop-color:#000000"
           d="m -26.797639,293.56027 a 0.2645835,0.2645835 0 0 0 -0.265625,0.26367 0.2645835,0.2645835 0 0 0 0.265625,0.26563 0.2645835,0.2645835 0 0 0 0.263672,-0.26563 0.2645835,0.2645835 0 0 0 -0.263672,-0.26367 z"
           id="path1189" />
        <path
           id="path1192"
           d="m -27.857016,294.88318 a 0.2645835,0.2645835 0 0 0 -0.265625,0.26367 0.2645835,0.2645835 0 0 0 0.265625,0.26563 0.2645835,0.2645835 0 0 0 0.263672,-0.26563 0.2645835,0.2645835 0 0 0 -0.263672,-0.26367 z"
           style="color:#000000;font-style:normal;font-variant:normal;font-weight:normal;font-stretch:normal;font-size:medium;line-height:normal;font-family:sans-serif;font-variant-ligatures:normal;font-variant-position:normal;font-variant-caps:normal;font-variant-numeric:normal;font-variant-alternates:normal;font-variant-east-asian:normal;font-feature-settings:normal;font-variation-settings:normal;text-indent:0;text-align:start;text-decoration:none;text-decoration-line:none;text-decoration-style:solid;text-decoration-color:#000000;letter-spacing:normal;word-spacing:normal;text-transform:none;writing-mode:lr-tb;direction:ltr;text-orientation:mixed;dominant-baseline:auto;baseline-shift:baseline;text-anchor:start;white-space:normal;shape-padding:0;shape-margin:0;inline-size:0;clip-rule:nonzero;display:inline;overflow:visible;visibility:visible;isolation:auto;mix-blend-mode:normal;color-interpolation:sRGB;color-interpolation-filters:linearRGB;solid-color:#000000;solid-opacity:1;vector-effect:none;fill:#fed883;fill-opacity:1;fill-rule:nonzero;stroke:none;stroke-width:0.42057;stroke-linecap:round;stroke-linejoin:round;stroke-miterlimit:1.5;stroke-dasharray:none;stroke-dashoffset:0;stroke-opacity:1;color-rendering:auto;image-rendering:auto;shape-rendering:auto;text-rendering:auto;enable-background:accumulate;stop-color:#000000" />
        <path
           id="path1196"
           d="m -21.241389,285.35833 a 0.2645835,0.2645835 0 0 0 -0.265625,0.26367 0.2645835,0.2645835 0 0 0 0.265625,0.26563 0.2645835,0.2645835 0 0 0 0.263671,-0.26563 0.2645835,0.2645835 0 0 0 -0.263671,-0.26367 z"
           style="color:#000000;font-style:normal;font-variant:normal;font-weight:normal;font-stretch:normal;font-size:medium;line-height:normal;font-family:sans-serif;font-variant-ligatures:normal;font-variant-position:normal;font-variant-caps:normal;font-variant-numeric:normal;font-variant-alternates:normal;font-variant-east-asian:normal;font-feature-settings:normal;font-variation-settings:normal;text-indent:0;text-align:start;text-decoration:none;text-decoration-line:none;text-decoration-style:solid;text-decoration-color:#000000;letter-spacing:normal;word-spacing:normal;text-transform:none;writing-mode:lr-tb;direction:ltr;text-orientation:mixed;dominant-baseline:auto;baseline-shift:baseline;text-anchor:start;white-space:normal;shape-padding:0;shape-margin:0;inline-size:0;clip-rule:nonzero;display:inline;overflow:visible;visibility:visible;isolation:auto;mix-blend-mode:normal;color-interpolation:sRGB;color-interpolation-filters:linearRGB;solid-color:#000000;solid-opacity:1;vector-effect:none;fill:#fed883;fill-opacity:1;fill-rule:nonzero;stroke:none;stroke-width:0.42057;stroke-linecap:round;stroke-linejoin:round;stroke-miterlimit:1.5;stroke-dasharray:none;stroke-dashoffset:0;stroke-opacity:1;color-rendering:auto;image-rendering:auto;shape-rendering:auto;text-rendering:auto;enable-background:accumulate;stop-color:#000000" />
        <path
           transform="matrix(0.26458334,0,0,0.26458334,0,280.06666)"
           d="m -66.259766,15.970703 c -0.276106,0.181946 -0.538881,0.394531 -0.78125,0.636719 l -0.707031,0.703125 3.537109,3.537109 c 0.389519,0.391786 1.022455,0.393614 1.414063,0.0039 0.394277,-0.391143 0.394273,-1.028778 0,-1.419921 z"
           style="color:#000000;font-style:normal;font-variant:normal;font-weight:normal;font-stretch:normal;font-size:medium;line-height:normal;font-family:sans-serif;font-variant-ligatures:normal;font-variant-position:normal;font-variant-caps:normal;font-variant-numeric:normal;font-variant-alternates:normal;font-variant-east-asian:normal;font-feature-settings:normal;font-variation-settings:normal;text-indent:0;text-align:start;text-decoration:none;text-decoration-line:none;text-decoration-style:solid;text-decoration-color:#000000;letter-spacing:normal;word-spacing:normal;text-transform:none;writing-mode:lr-tb;direction:ltr;text-orientation:mixed;dominant-baseline:auto;baseline-shift:baseline;text-anchor:start;white-space:normal;shape-padding:0;shape-margin:0;inline-size:0;clip-rule:nonzero;display:inline;overflow:visible;visibility:visible;isolation:auto;mix-blend-mode:normal;color-interpolation:sRGB;color-interpolation-filters:linearRGB;solid-color:#000000;solid-opacity:1;vector-effect:none;fill:#e65238;fill-opacity:1;fill-rule:nonzero;stroke:none;stroke-width:1.58955;stroke-linecap:round;stroke-linejoin:round;stroke-miterlimit:1.5;stroke-dasharray:none;stroke-dashoffset:0;stroke-opacity:1;color-rendering:auto;image-rendering:auto;shape-rendering:auto;text-rendering:auto;enable-background:accumulate;stop-color:#000000"
           id="path366" />
        <path
           id="path358"
           style="fill:#349951;fill-opacity:1;stroke-width:1.58955;stroke-linecap:round;stroke-linejoin:round;stroke-miterlimit:1.5"
           d="m -56.773438,2.1230469 c -0.215151,-0.010114 -0.432347,0.00428 -0.648437,0.017578 1.344532,3.292709 1.308975,8.3165871 1.373047,13.0976561 0.361735,-1.435702 1.071035,-3.313037 1.689453,-5.132812 0.432348,-1.2722271 0.811913,-2.5284893 0.921875,-3.7207035 0.109946,-1.1922141 -0.06638,-2.4297902 -0.945312,-3.3066406 -0.655093,-0.6535559 -1.508002,-0.9135878 -2.390626,-0.955078 z m 0.789063,15.6914061 c 0.126427,3.770413 0.50018,7.14025 1.957031,8.982422 0.964796,-0.719319 1.734336,-1.691208 1.734375,-2.917969 6.1e-5,-1.692094 -1.25226,-2.819156 -2.236328,-3.970703 -0.624692,-0.730982 -1.142127,-1.432985 -1.455078,-2.09375 z"
           transform="matrix(0.26458334,0,0,0.26458334,0,280.06666)" />
      </g>
      <path
         id="path744"
         style="color:#000000;font-style:normal;font-variant:normal;font-weight:normal;font-stretch:normal;font-size:medium;line-height:normal;font-family:sans-serif;font-variant-ligatures:normal;font-variant-position:normal;font-variant-caps:normal;font-variant-numeric:normal;font-variant-alternates:normal;font-variant-east-asian:normal;font-feature-settings:normal;font-variation-settings:normal;text-indent:0;text-align:start;text-decoration:none;text-decoration-line:none;text-decoration-style:solid;text-decoration-color:#000000;letter-spacing:normal;word-spacing:normal;text-transform:none;writing-mode:lr-tb;direction:ltr;text-orientation:mixed;dominant-baseline:auto;baseline-shift:baseline;text-anchor:start;white-space:normal;shape-padding:0;shape-margin:0;inline-size:0;clip-rule:nonzero;display:inline;overflow:visible;visibility:visible;opacity:1;isolation:auto;mix-blend-mode:normal;color-interpolation:sRGB;color-interpolation-filters:linearRGB;solid-color:#000000;solid-opacity:1;vector-effect:none;fill:#000000;fill-opacity:1;fill-rule:nonzero;stroke:none;stroke-width:0.42057;stroke-linecap:round;stroke-linejoin:round;stroke-miterlimit:1.5;stroke-dasharray:none;stroke-dashoffset:0;stroke-opacity:1;color-rendering:auto;image-rendering:auto;shape-rendering:auto;text-rendering:auto;enable-background:accumulate;stop-color:#000000;stop-opacity:1"
         d="m -20.90415,280.8534 c -0.482597,0.92206 -0.563526,1.93367 -0.701766,2.9869 l -4.404899,4.40387 c -0.042,0.0377 -0.08499,0.0745 -0.12609,0.11317 l 0.0062,0.007 -3.201357,3.20033 c -1.201179,1.20118 -1.202594,3.11756 -0.02739,4.29276 1.175208,1.17522 3.090042,1.17172 4.291211,-0.0295 l 7.758183,-7.75611 c 0.488312,-0.072 1.266455,-0.19964 1.968355,-0.42323 0.374107,-0.11918 0.724724,-0.26232 1.002006,-0.45527 0.277282,-0.19295 0.503835,-0.46433 0.503845,-0.80874 1.7e-5,-0.4477 -0.331327,-0.7459 -0.591695,-1.05058 -0.260369,-0.30467 -0.467156,-0.59376 -0.467155,-0.84388 -10e-7,-0.36371 0.283329,-1.07653 0.512114,-1.74976 0.114392,-0.33661 0.214818,-0.669 0.243913,-0.98444 0.02909,-0.31544 -0.01756,-0.6434 -0.250114,-0.8754 -0.231102,-0.23056 -0.555696,-0.27583 -0.867131,-0.24598 -0.934792,0.0534 -1.760902,0.7304 -2.689242,0.75603 -0.836836,-0.14391 -1.431197,-1.04061 -2.183846,-1.05885 -0.342912,0 -0.604041,0.23998 -0.775146,0.52193 z m 4.298446,1.48208 c -0.03839,-0.096 -0.128773,-0.1607 -0.232027,-0.16588 -0.185456,0.0221 -0.36714,0.10751 -0.548804,0.17002 -0.113517,0.04 -0.186184,0.15136 -0.176217,0.2713 0.02024,0.25254 -0.07038,0.31035 -0.163814,0.33589 -0.09343,0.0255 -0.216683,-0.002 -0.29869,-0.15244 -0.05829,-0.10638 -0.181826,-0.15929 -0.299206,-0.12868 -0.872031,0.2754 -1.871999,0.39525 -2.689759,0.72864 0.152424,-0.79511 0.153902,-1.57679 0.563273,-2.26756 0.122296,-0.20151 0.218534,-0.26562 0.321945,-0.26562 0.811975,0.20149 1.425319,1.04101 2.183846,1.05834 1.020022,-0.0934 1.786442,-0.59894 2.739884,-0.75758 0.230781,-0.0221 0.36338,0.0137 0.443384,0.0935 0.07952,0.0793 0.117875,0.21529 0.09612,0.45114 -0.02175,0.23585 -0.107598,0.54146 -0.217041,0.86351 -0.218888,0.64411 -0.541053,1.33219 -0.541052,1.91978 -1e-6,0.49924 0.324968,0.873 0.593762,1.18753 0.268794,0.31454 0.465092,0.58965 0.465088,0.70693 -4e-6,0.11182 -0.07406,0.23359 -0.277502,0.37517 -0.203445,0.14157 -0.51382,0.27439 -0.85938,0.38447 -0.556376,0.17725 -1.191668,0.29567 -1.666048,0.37104 l 1.255738,-1.20096 c 0.390521,-0.33574 0.502283,-0.85216 0.334605,-1.3932 z m -0.396358,0.43202 0.542602,1.35702 c -0.324456,-0.10119 -0.652043,-0.0102 -0.930692,0.0946 -0.110189,-0.236 -0.322883,-0.42129 -0.594279,-0.47904 -0.279261,-0.0594 -0.556049,0.0307 -0.751376,0.21342 -0.144457,-0.21059 -0.363504,-0.36263 -0.555004,-0.49248 l 1.091406,-0.28163 c 0.195584,0.14717 0.372325,0.25943 0.597379,0.19792 0.231828,-0.0634 0.364868,-0.24855 0.401009,-0.54157 z m -2.278931,1.35909 c 0.45497,0.45497 0.510375,1.15152 0.167432,1.66605 l -0.389124,-0.38913 c 0.139088,-0.29494 0.09082,-0.65952 -0.151412,-0.90175 -0.242193,-0.24219 -0.60736,-0.29093 -0.90227,-0.15193 l -0.391191,-0.39119 c 0.561482,-0.31312 1.247452,-0.2386 1.666565,0.16795 z m 1.059367,0.12867 c 0.04072,-0.008 0.08368,-0.007 0.127641,0.002 0.14983,0.0318 0.24617,0.1618 0.25063,0.30954 l -0.522965,0.52141 c 0.0028,-0.20553 -0.02918,-0.41068 -0.09405,-0.60771 0.03464,-0.11926 0.125056,-0.20421 0.238745,-0.22531 z m -3.114539,0.063 2.529045,2.53007 c -1.727538,-0.59032 -3.598396,-0.52653 -5.173328,0.11421 z m 4.490682,2.15645 -0.517798,-0.51779 c -0.05184,-0.0512 -0.122522,-0.0791 -0.195336,-0.0765 -0.06673,0.002 -0.130255,0.0296 -0.177767,0.0765 -0.103876,0.10342 -0.103876,0.27123 0,0.37465 l 0.508496,0.50953 -0.426331,0.40876 -1.064534,-1.06453 1.168404,-1.16376 0.562239,0.56224 c 0.103196,0.10257 0.269908,0.10257 0.373104,0 0.103876,-0.10342 0.103876,-0.27175 0,-0.37517 l -0.526583,-0.52658 c 0.337846,-0.15767 0.6344,-0.14194 0.901237,0.15348 0.39127,0.31455 0.246917,0.83853 -0.02248,1.08133 z m -4.396114,-1.11672 c -0.146126,-5.9e-4 -0.265047,0.11742 -0.265617,0.26355 -5.82e-4,0.14693 0.118683,0.26619 0.265617,0.26561 0.146328,-2.9e-4 0.264638,-0.11929 0.264067,-0.26561 -5.56e-4,-0.14552 -0.118546,-0.26327 -0.264067,-0.26355 z m 3.375496,2.51974 -7.57524,7.5768 c -1.004193,1.0042 -2.572017,1.00039 -3.545004,0.0274 -0.972984,-0.97298 -0.974746,-2.53873 0.02946,-3.54294 l 3.319178,-3.31918 c 2.334669,-1.86615 5.356836,-2.14778 7.77161,-0.74207 z m -2.847363,0.12609 c -0.146126,-5.8e-4 -0.265047,0.11742 -0.265617,0.26355 -5.82e-4,0.14693 0.118684,0.26619 0.265617,0.26562 0.146328,-2.9e-4 0.264639,-0.11929 0.264067,-0.26562 -5.56e-4,-0.14552 -0.118546,-0.26327 -0.264067,-0.26355 z m -3.43855,0.26562 c -0.146125,-5.9e-4 -0.265047,0.11742 -0.265616,0.26355 -5.82e-4,0.14693 0.118683,0.26619 0.265616,0.26561 0.146126,-5.8e-4 0.264122,-0.11949 0.26355,-0.26561 -5.55e-4,-0.14532 -0.11823,-0.26299 -0.26355,-0.26355 z m 2.909384,0.79271 c -0.146126,-5.8e-4 -0.265048,0.11743 -0.265617,0.26355 -5.83e-4,0.14694 0.118683,0.2662 0.265617,0.26562 0.146327,-2.9e-4 0.264638,-0.11929 0.264066,-0.26562 -5.55e-4,-0.14552 -0.118545,-0.26326 -0.264066,-0.26355 z m -3.975985,0.26562 c -0.06744,0.001 -0.131764,0.0286 -0.179834,0.076 l -2.117183,2.11719 c -0.102613,0.1032 -0.102613,0.2699 0,0.3731 0.103439,0.10399 0.271733,0.10399 0.375172,0 l 2.117182,-2.11511 c 0.10399,-0.10344 0.10399,-0.27174 0,-0.37518 -0.05188,-0.0511 -0.122544,-0.0786 -0.195337,-0.076 z m 2.115116,0 c -0.06672,0.002 -0.130214,0.0291 -0.177767,0.076 l -2.117183,2.11719 c -0.102613,0.1032 -0.102613,0.2699 0,0.3731 0.103439,0.10399 0.271732,0.10399 0.375171,0 l 2.115116,-2.11511 c 0.10399,-0.10344 0.10399,-0.27174 0,-0.37518 -0.05188,-0.0511 -0.122544,-0.0786 -0.195337,-0.076 z m -4.75268,3.175 c -0.146127,-5.8e-4 -0.265049,0.11742 -0.265618,0.26355 -5.29e-4,0.14693 0.118684,0.26619 0.265618,0.26562 0.146327,-2.9e-4 0.264636,-0.11929 0.264064,-0.26562 -5.29e-4,-0.14552 -0.118544,-0.26327 -0.264064,-0.26355 z m 2.910415,0.52813 c -0.146125,-5.8e-4 -0.265047,0.11743 -0.265616,0.26355 -5.82e-4,0.14694 0.118683,0.2662 0.265616,0.26562 0.146328,-2.9e-4 0.264639,-0.11929 0.264067,-0.26562 -5.56e-4,-0.14552 -0.118546,-0.26326 -0.264067,-0.26355 z m -1.852082,0.52917 c -0.146127,-5.8e-4 -0.265049,0.11742 -0.265618,0.26355 -5.29e-4,0.14693 0.118684,0.26619 0.265618,0.26562 0.146328,-2.9e-4 0.264636,-0.11929 0.264065,-0.26562 -5.3e-4,-0.14552 -0.118544,-0.26327 -0.264065,-0.26355 z m -1.059368,1.32292 c -0.146127,-5.9e-4 -0.265049,0.11742 -0.265618,0.26355 -5.29e-4,0.14693 0.118684,0.26619 0.265618,0.26561 0.146328,-2.9e-4 0.264639,-0.11929 0.264067,-0.26561 -5.29e-4,-0.14552 -0.118546,-0.26327 -0.264067,-0.26355 z"
         sodipodi:nodetypes="ccccccccccsscsscccccccccccccccccccsscscccccccccccccccccscccccsccccsccccccsccccccccccccccscscsccccsccscssscscsccccccccccccccccccccsccccsccccsccccscscccs" />
    </g>
  </g>
</svg>
