<?xml version="1.0" encoding="UTF-8" standalone="no"?>
<svg
   sodipodi:docname="14 - Fries French.svg"
   inkscape:version="1.1.1 (1:1.1+202109281949+c3084ef5ed)"
   id="svg831"
   version="1.1"
   viewBox="0 0 22.577778 22.577778"
   height="64pt"
   width="64pt"
   inkscape:export-filename="/media/taufikramadhan/Data/Tr Design Studio/Project Design/TR Creative Design/Icon Design/Project Hiring/Icon Icons/010 - Food/Send/4 - Filledline/13 - Egg And Bacon.png"
   inkscape:export-xdpi="576"
   inkscape:export-ydpi="576"
   xmlns:inkscape="http://www.inkscape.org/namespaces/inkscape"
   xmlns:sodipodi="http://sodipodi.sourceforge.net/DTD/sodipodi-0.dtd"
   xmlns:xlink="http://www.w3.org/1999/xlink"
   xmlns="http://www.w3.org/2000/svg"
   xmlns:svg="http://www.w3.org/2000/svg"
   xmlns:rdf="http://www.w3.org/1999/02/22-rdf-syntax-ns#"
   xmlns:cc="http://creativecommons.org/ns#"
   xmlns:dc="http://purl.org/dc/elements/1.1/">
  <defs
     id="defs825">
    <pattern
       y="0"
       x="0"
       height="6"
       width="6"
       patternUnits="userSpaceOnUse"
       id="EMFhbasepattern" />
    <pattern
       y="0"
       x="0"
       height="6"
       width="6"
       patternUnits="userSpaceOnUse"
       id="EMFhbasepattern-9" />
    <pattern
       y="0"
       x="0"
       height="6"
       width="6"
       patternUnits="userSpaceOnUse"
       id="EMFhbasepattern-0" />
    <pattern
       y="0"
       x="0"
       height="6"
       width="6"
       patternUnits="userSpaceOnUse"
       id="EMFhbasepattern-7" />
    <pattern
       y="0"
       x="0"
       height="6"
       width="6"
       patternUnits="userSpaceOnUse"
       id="EMFhbasepattern-2" />
    <pattern
       y="0"
       x="0"
       height="6"
       width="6"
       patternUnits="userSpaceOnUse"
       id="EMFhbasepattern-98" />
    <pattern
       y="0"
       x="0"
       height="6"
       width="6"
       patternUnits="userSpaceOnUse"
       id="EMFhbasepattern-6" />
    <pattern
       y="0"
       x="0"
       height="6"
       width="6"
       patternUnits="userSpaceOnUse"
       id="EMFhbasepattern-01" />
    <pattern
       y="0"
       x="0"
       height="6"
       width="6"
       patternUnits="userSpaceOnUse"
       id="EMFhbasepattern-07" />
    <pattern
       y="0"
       x="0"
       height="6"
       width="6"
       patternUnits="userSpaceOnUse"
       id="EMFhbasepattern-8" />
    <pattern
       y="0"
       x="0"
       height="6"
       width="6"
       patternUnits="userSpaceOnUse"
       id="EMFhbasepattern-4" />
    <pattern
       y="0"
       x="0"
       height="6"
       width="6"
       patternUnits="userSpaceOnUse"
       id="EMFhbasepattern-40" />
    <pattern
       y="0"
       x="0"
       height="6"
       width="6"
       patternUnits="userSpaceOnUse"
       id="EMFhbasepattern-08" />
    <pattern
       y="0"
       x="0"
       height="6"
       width="6"
       patternUnits="userSpaceOnUse"
       id="EMFhbasepattern-04" />
    <pattern
       y="0"
       x="0"
       height="6"
       width="6"
       patternUnits="userSpaceOnUse"
       id="EMFhbasepattern-014" />
    <pattern
       y="0"
       x="0"
       height="6"
       width="6"
       patternUnits="userSpaceOnUse"
       id="EMFhbasepattern-27" />
    <pattern
       y="0"
       x="0"
       height="6"
       width="6"
       patternUnits="userSpaceOnUse"
       id="EMFhbasepattern-09" />
    <pattern
       y="0"
       x="0"
       height="6"
       width="6"
       patternUnits="userSpaceOnUse"
       id="EMFhbasepattern-5" />
    <pattern
       y="0"
       x="0"
       height="6"
       width="6"
       patternUnits="userSpaceOnUse"
       id="EMFhbasepattern-018" />
  </defs>
  <sodipodi:namedview
     inkscape:document-rotation="0"
     inkscape:snap-global="true"
     inkscape:snap-nodes="false"
     inkscape:bbox-nodes="true"
     inkscape:snap-bbox="true"
     showguides="true"
     inkscape:snap-midpoints="true"
     inkscape:snap-smooth-nodes="true"
     inkscape:snap-intersection-paths="true"
     inkscape:object-paths="true"
     inkscape:showpageshadow="false"
     inkscape:pagecheckerboard="true"
     inkscape:window-maximized="1"
     inkscape:window-y="31"
     inkscape:window-x="0"
     inkscape:window-height="705"
     inkscape:window-width="1366"
     units="pt"
     showgrid="false"
     inkscape:current-layer="layer1"
     inkscape:document-units="pt"
     inkscape:cy="58.847867"
     inkscape:cx="50.738091"
     inkscape:zoom="2.4045052"
     inkscape:pageshadow="2"
     inkscape:pageopacity="0.0"
     borderopacity="1.0"
     bordercolor="#666666"
     pagecolor="#ffffff"
     id="base">
    <inkscape:grid
       id="grid1378"
       type="xygrid" />
    <sodipodi:guide
       inkscape:locked="false"
       id="guide1380"
       orientation="78.000048,0"
       position="0.97013831,21.607643" />
    <sodipodi:guide
       inkscape:locked="false"
       id="guide1382"
       orientation="0,78.000005"
       position="0.97013831,0.97013129" />
    <sodipodi:guide
       inkscape:locked="false"
       id="guide1384"
       orientation="-78.000048,0"
       position="21.607639,0.97013129" />
    <sodipodi:guide
       inkscape:locked="false"
       id="guide1386"
       orientation="0,-78.000005"
       position="21.607639,21.607643" />
  </sodipodi:namedview>
  <metadata
     id="metadata828">
    <rdf:RDF>
      <cc:Work
         rdf:about="">
        <dc:format>image/svg+xml</dc:format>
        <dc:type
           rdf:resource="http://purl.org/dc/dcmitype/StillImage" />
      </cc:Work>
    </rdf:RDF>
  </metadata>
  <g
     transform="translate(0,-274.42223)"
     id="layer1"
     inkscape:groupmode="layer"
     inkscape:label="Icon">
    <g
       id="g1969"
       style="display:inline"
       transform="matrix(1.2580568,0,0,1.2580568,39.011568,-115.65472)">
      <g
         id="g118325"
         style="display:inline">
        <g
           id="g98955"
           transform="translate(0,10.583333)">
          <path
             style="color:#000000;fill:#fed883;stroke-linecap:round;stroke-linejoin:round;stroke-miterlimit:1.5;-inkscape-stroke:none"
             d="m -16.552734,303.45572 a 0.26460996,0.26460996 0 0 0 -0.263672,0.2461 l -0.191406,2.88086 a 0.26460996,0.26460996 0 0 0 -0.002,0.0176 v 0.53321 a 0.26460996,0.26460996 0 0 0 0.267579,0.26562 l 0.724609,-0.01 a 0.26460996,0.26460996 0 0 0 0.257812,-0.22071 l 0.488282,-2.91211 c 0.06954,-0.41453 -0.259365,-0.80078 -0.679688,-0.80078 z"
             id="path2440" />
          <path
             style="color:#000000;fill:#fed883;stroke-linecap:round;stroke-linejoin:round;stroke-miterlimit:1.5;-inkscape-stroke:none"
             d="m -18.052734,302.36783 a 0.26460996,0.26460996 0 0 0 -0.265625,0.26367 v 4.50196 a 0.26460996,0.26460996 0 0 0 0.265625,0.26562 h 1.308593 a 0.26460996,0.26460996 0 0 0 0.263672,-0.26562 v -0.52344 l 0.263672,-3.96094 a 0.26460996,0.26460996 0 0 0 -0.263672,-0.28125 z"
             id="path2488" />
          <g
             id="g97090">
            <path
               style="color:#000000;fill:#fed883;stroke-linecap:round;stroke-linejoin:round;stroke-miterlimit:1.5;-inkscape-stroke:none"
               d="m -19.242187,301.11588 a 0.26460996,0.26460996 0 0 0 -0.265625,0.26562 v 5.75196 a 0.26460996,0.26460996 0 0 0 0.265625,0.26562 h 1.572265 a 0.26460996,0.26460996 0 0 0 0.265625,-0.26562 v -5.75196 a 0.26460996,0.26460996 0 0 0 -0.265625,-0.26562 z"
               id="path2482" />
          </g>
          <path
             style="color:#000000;fill:#fed883;stroke-linecap:round;stroke-linejoin:round;stroke-miterlimit:1.5;-inkscape-stroke:none"
             d="m -21.089844,301.66861 a 0.26460996,0.26460996 0 0 0 -0.324218,0.25782 v 1.04101 6.67188 a 0.26460996,0.26460996 0 0 0 0.265625,0.26367 h 1.90625 a 0.26460996,0.26460996 0 0 0 0.263671,-0.26367 v -3.03907 -4.23242 a 0.26460996,0.26460996 0 0 0 -0.205078,-0.25781 z"
             id="path2476" />
          <path
             style="color:#000000;fill:#fed883;stroke-linecap:round;stroke-linejoin:round;stroke-miterlimit:1.5;-inkscape-stroke:none"
             d="m -26.351562,300.26432 -1.607422,0.52929 a 0.26460996,0.26460996 0 0 0 -0.179688,0.28516 l 0.746094,5.55664 a 0.26460996,0.26460996 0 0 0 0.261719,0.23047 h 1.542968 a 0.26460996,0.26460996 0 0 0 0.261719,-0.29492 l -0.679687,-6.08594 a 0.26460996,0.26460996 0 0 0 -0.345703,-0.2207 z"
             id="path2446" />
          <path
             style="color:#000000;fill:#fed883;stroke-linecap:round;stroke-linejoin:round;stroke-miterlimit:1.5;-inkscape-stroke:none"
             d="m -22.367187,300.61197 -2.023438,0.5293 a 0.26460996,0.26460996 0 0 0 -0.197266,0.25976 l 0.02734,3.15625 a 0.26460996,0.26460996 0 0 0 0.05273,0.15821 l 0.986328,1.30859 v 3.92969 a 0.26460996,0.26460996 0 0 0 0.265625,0.26367 h 0.955078 a 0.26460996,0.26460996 0 0 0 0.263672,-0.26367 v -9.08594 a 0.26460996,0.26460996 0 0 0 -0.330078,-0.25586 z"
             id="path2464" />
          <path
             style="color:#000000;fill:#fed883;stroke-linecap:round;stroke-linejoin:round;stroke-miterlimit:1.5;-inkscape-stroke:none"
             d="m -26.078125,301.95963 a 0.26460996,0.26460996 0 0 0 -0.263672,0.29492 l 0.490235,4.375 a 0.26460996,0.26460996 0 0 0 0.263671,0.23633 h 0.757813 a 0.26460996,0.26460996 0 0 0 0.265625,-0.26563 v -1.77929 h 0.267578 a 0.26460996,0.26460996 0 0 0 0.265625,-0.26758 l -0.02148,-2.33203 a 0.26460996,0.26460996 0 0 0 -0.263672,-0.26172 z"
             id="path2452" />
          <path
             style="color:#000000;fill:#fed883;stroke-linecap:round;stroke-linejoin:round;stroke-miterlimit:1.5;-inkscape-stroke:none"
             d="m -24.830078,304.29166 a 0.26460996,0.26460996 0 0 0 -0.263672,0.26367 v 5.39844 a 0.26460996,0.26460996 0 0 0 0.263672,0.26367 h 1.574219 a 0.26460996,0.26460996 0 0 0 0.263672,-0.26367 v -5.39844 a 0.26460996,0.26460996 0 0 0 -0.263672,-0.26367 z"
             id="path2458" />
          <path
             style="color:#000000;fill:#fed883;stroke-linecap:round;stroke-linejoin:round;stroke-miterlimit:1.5;-inkscape-stroke:none"
             sodipodi:type="inkscape:offset"
             inkscape:radius="0"
             inkscape:original="M -22.300781 313.28711 A 0.26460996 0.26460996 0 0 0 -22.564453 313.55078 L -22.564453 320.9668 A 0.26460996 0.26460996 0 0 0 -22.300781 321.23242 L -20.726562 321.23242 A 0.26460996 0.26460996 0 0 0 -20.462891 320.9668 L -20.462891 313.55078 A 0.26460996 0.26460996 0 0 0 -20.726562 313.28711 L -22.300781 313.28711 z "
             xlink:href="#path2470"
             id="path74102"
             transform="translate(0,-10.583333)"
             inkscape:href="#path2470"
             d="m -22.300781,313.28711 a 0.26460996,0.26460996 0 0 0 -0.263672,0.26367 v 7.41602 a 0.26460996,0.26460996 0 0 0 0.263672,0.26562 h 1.574219 a 0.26460996,0.26460996 0 0 0 0.263671,-0.26562 v -7.41602 a 0.26460996,0.26460996 0 0 0 -0.263671,-0.26367 z" />
          <path
             style="color:#000000;fill:#fed883;stroke-linecap:round;stroke-linejoin:round;stroke-miterlimit:1.5;-inkscape-stroke:none"
             d="m -28.121094,303.45572 c -0.420322,0 -0.749228,0.38625 -0.679687,0.80078 0.19037,1.13484 0.399643,2.26335 0.554687,3.39258 a 0.26460996,0.26460996 0 0 0 0.462891,0.13477 l 0.855469,-1.01172 a 0.26460996,0.26460996 0 0 0 0.06055,-0.20703 l -0.386719,-2.88086 a 0.26460996,0.26460996 0 0 0 -0.263672,-0.22852 z"
             id="path2434" />
        </g>
        <path
           style="color:#000000;fill:#dc1c4b;stroke-linecap:round;stroke-linejoin:round;stroke-miterlimit:1.5;-inkscape-stroke:none"
           d="m -27.591797,316.91992 c -0.435548,0 -0.77903,0.3926 -0.720703,0.82422 l 1.144531,8.47852 c 0.07834,0.57973 0.577104,1.01562 1.16211,1.01562 h 2.419922 a 0.26460996,0.26460996 0 0 0 0.248046,-0.17187 c 0.197673,-0.5257 0.702732,-0.90039 1.300782,-0.90039 0.59805,0 1.108101,0.3764 1.324218,0.9082 a 0.26460996,0.26460996 0 0 0 0.246094,0.16406 h 2.398438 c 0.585005,0 1.08572,-0.43589 1.164062,-1.01562 l 1.144531,-8.47852 c 0.05833,-0.43162 -0.285155,-0.82422 -0.720703,-0.82422 h -2.761718 a 0.26460996,0.26460996 0 0 0 -0.263672,0.23438 c -0.07148,0.6403 -0.238366,1.39463 -0.615235,1.96289 -0.376869,0.56826 -0.9345,0.96875 -1.916015,0.96875 -0.981517,0 -1.537194,-0.40049 -1.914063,-0.96875 -0.376869,-0.56826 -0.543752,-1.32259 -0.615234,-1.96289 a 0.26460996,0.26460996 0 0 0 -0.263672,-0.23438 z"
           id="path2494" />
        <path
           id="path108694"
           style="color:#000000;fill:#8e1335;fill-opacity:1;stroke-width:1;stroke-linecap:round;stroke-linejoin:round;stroke-miterlimit:1.5;-inkscape-stroke:none"
           d="m -17.538981,316.91971 c 0.435547,0 0.779216,0.39261 0.720886,0.82423 l -1.144633,8.47856 c -0.07834,0.57973 -0.578749,1.01596 -1.163753,1.01596 h 1.058333 c 0.585005,0 1.085411,-0.43623 1.163753,-1.01596 l 1.144633,-8.47856 c 0.05833,-0.43162 -0.285338,-0.82423 -0.720886,-0.82423 z"
           sodipodi:nodetypes="ccccsccsc" />
        <path
           id="path2504"
           style="color:#000000;fill:#d0e2ee;stroke-width:3.77953;stroke-linecap:round;stroke-linejoin:round;stroke-miterlimit:1.5;-inkscape-stroke:none"
           d="m -104.59375,160.28906 0.87695,6.4961 h 12.431644 a 1.0001006,1.0001006 0 0 0 0.998047,-0.9961 v -4.5039 a 1.0001006,1.0001006 0 0 0 -0.998047,-0.9961 z m 29.306641,0 a 1.0001006,1.0001006 0 0 0 -0.998047,0.9961 v 4.5039 a 1.0001006,1.0001006 0 0 0 0.998047,0.9961 h 12.43164 l 0.876953,-6.4961 z"
           transform="matrix(0.26458334,0,0,0.26458334,0,280.06666)" />
        <path
           id="path112397"
           style="color:#000000;fill:#a8c2e1;fill-opacity:1;stroke-width:1;stroke-linecap:round;stroke-linejoin:round;stroke-miterlimit:1.5;-inkscape-stroke:none"
           d="m -27.673764,322.47647 0.07131,0.52917 h 3.44992 a 0.26460996,0.26460996 0 0 1 0.264066,0.26355 v -0.52916 a 0.26460996,0.26460996 0 0 0 -0.264066,-0.26356 z m 7.754049,0 a 0.26460996,0.26460996 0 0 0 -0.264066,0.26356 v 0.52916 a 0.26460996,0.26460996 0 0 1 0.264066,-0.26355 h 3.449919 l 0.07131,-0.52917 z" />
        <path
           style="color:#000000;fill:#fca311;stroke-width:3.77953;stroke-linecap:round;stroke-linejoin:round;stroke-miterlimit:1.5;-inkscape-stroke:none"
           d="m -83.289062,155.28516 c -1.801671,0.001 -3.496561,0.81503 -4.628907,2.19531 -1.501959,0.15399 -2.468781,0.38222 -3.197265,0.80859 -0.793433,0.46436 -1.173828,1.37449 -1.173828,2 v 5.99414 c 0,1.6447 1.361145,3.00391 3.005859,3.00391 h 11.994141 c 1.644718,0 3.005859,-1.35921 3.005859,-3.00391 v -5.99414 c 0,-0.62456 -0.381862,-1.52677 -1.173828,-1.99218 -0.727465,-0.42751 -1.694279,-0.6644 -3.19336,-0.81836 -1.133549,-1.37952 -2.831308,-2.19302 -4.632812,-2.19336 a 1.0001006,1.0001006 0 0 0 -0.0059,0 z"
           transform="matrix(0.26458334,0,0,0.26458334,0,280.06666)"
           id="path4925" />
        <path
           id="path100091"
           style="color:#000000;fill:#e05e10;fill-opacity:1;stroke-width:1;stroke-linecap:round;stroke-linejoin:round;stroke-miterlimit:1.5;-inkscape-stroke:none"
           d="m -22.036898,321.15252 c -0.476692,2.7e-4 -0.925132,0.21565 -1.224732,0.58085 -0.397393,0.0407 -0.653198,0.10112 -0.845943,0.21394 -0.209929,0.12286 -0.310576,0.36366 -0.310575,0.52916 v 0.32608 c 1.32497,-0.35503 2.377535,-0.259 3.395152,0.20516 0.209541,0.12314 0.310576,0.36185 0.310576,0.5271 v 1.3224 h 0.263033 c 0.435165,0 0.7953,-0.35963 0.7953,-0.79479 v -1.58595 c 0,-0.16524 -0.101034,-0.40395 -0.310575,-0.52709 -0.192476,-0.11312 -0.448278,-0.1758 -0.84491,-0.21653 -0.299918,-0.365 -0.749117,-0.58023 -1.225765,-0.58032 -5.29e-4,-1e-5 -0.001,-1e-5 -0.0016,0 z"
           sodipodi:nodetypes="scssccscsssscsss" />
        <path
           id="path115462"
           style="color:#000000;fill:#a8c2e1;fill-opacity:1;stroke-width:3.77953;stroke-linecap:round;stroke-linejoin:round;stroke-miterlimit:1.5;-inkscape-stroke:none"
           d="m -65.978516,160.28906 -0.876953,6.4961 h 4 l 0.876953,-6.4961 z"
           transform="matrix(0.26458334,0,0,0.26458334,0,280.06666)" />
      </g>
      <path
         id="rect40881"
         style="color:#000000;fill:#000000;stroke-width:3.77953;stroke-linecap:round;stroke-linejoin:round;stroke-miterlimit:1.5;-inkscape-stroke:none"
         d="m -68.288962,178.28718 c 2.211042,0 4.102341,-1.64874 4.398437,-3.83984 l 4.322266,-32.01563 h 0.0039 l 1.845703,-11.00586 c 0.262828,-1.56673 -0.979741,-3.02539 -2.568359,-3.02539 h -1.207032 l 0.203125,-3.04883 c 0.03628,-0.57532 -0.421585,-1.06354 -0.998046,-1.06445 h -3.490235 v -3.72656 c 0.0021,-0.55533 -0.448573,-1.00603 -1.003906,-1.00391 h -5.943359 c -0.555334,-0.002 -1.006031,0.44858 -1.003907,1.00391 v 2.4707 l -5.978515,-1.38672 c -0.626805,-0.14475 -1.226589,0.33126 -1.226563,0.97461 v 2.9375 h -2.353515 v -6.9375 c -0.0013,-0.65189 -0.616417,-1.12807 -1.248047,-0.9668 l -7.648438,2 c -0.439302,0.11566 -0.744076,0.51254 -0.744141,0.9668 v 2.125 h -4.738281 l -0.621093,-5.57226 c -0.05951,-0.51106 -0.489592,-0.87329 -0.970704,-0.88477 l -9.4e-5,-7e-5 c -0.111025,-0.003 -0.223176,0.0136 -0.335937,0.0508 l -6.076177,2 c -0.45549,0.15005 -0.74098,0.60251 -0.67968,1.07813 l 1.20703,8.98437 h -1.14063 c -1.58861,0 -2.83117,1.45866 -2.56836,3.02539 l 1.84571,11.00586 h 0.004 l 4.32227,32.01563 c 0.29609,2.1911 2.18153,3.83984 4.392578,3.83984 l 9.005859,-0.0156 c 0.463027,0.0661 0.910038,-0.19753 1.076172,-0.63476 0.74711,-1.9869 2.657622,-3.40234 4.917969,-3.40234 2.260346,0 4.176721,1.41544 4.923828,3.40234 0.16683,0.43645 0.613661,0.6992 1.076172,0.63281 z m -31.853618,-59.66804 2.312502,20.66797 h -3.830082 l -2.59375,-19.31055 z m 14.859377,1.29883 v 31.16797 c -0.587721,-0.10502 -1.124681,-0.25664 -1.617188,-0.45117 v -18.08008 c -0.002,-0.54958 -0.44652,-0.99417 -0.996093,-0.9961 h -2.941407 l -0.09961,-7.82421 v -2.33985 z m 13.552734,1.63867 h 3.949219 v 2.73047 h -0.449219 c -0.552453,-0.002 -1.001948,0.44559 -1.003906,0.99805 v 14.00195 h -2.496094 z m -7.203125,2.31836 5.203125,1.21094 v 15.15429 c -0.274214,2.40579 -0.90685,5.22323 -2.318359,7.35157 -0.376678,0.56797 -0.801788,1.09167 -1.291016,1.55468 v -22.59179 c -0.0019,-0.54958 -0.446524,-0.99608 -0.996094,-0.99805 h -0.597656 z m -18.509765,0.87109 h 4.513671 V 125.75 h 0.01758 l 0.07227,5.80859 h -1.005859 c -0.549574,0.002 -0.994144,0.44652 -0.996094,0.9961 v 6.73242 h -0.978515 z m 34.083984,1.54297 -0.859375,12.99805 h -3.015625 v -12.99805 z m -19.929687,1.26953 h 3.949218 v 22.9336 c -1.072042,0.48447 -2.363461,0.76172 -3.949218,0.76172 z m -22.996098,2.8418 h 1.40821 l 1.19336,8.88672 h -0.59961 c -0.41934,0 -0.81705,0.0971 -1.17188,0.26758 l -1.41992,-8.46094 c -0.0646,-0.38525 0.19919,-0.69336 0.58984,-0.69336 z m 44.658207,0 h 1.339844 c 0.39064,0 0.65447,0.30826 0.589843,0.69336 l -1.419922,8.46094 c -0.334998,-0.16096 -0.708099,-0.25553 -1.101562,-0.26563 z m -31.214844,3.16016 h 3.941406 v 15.88476 c -0.632784,-0.53187 -1.162842,-1.1596 -1.623047,-1.85351 -1.411508,-2.12834 -2.044137,-4.94578 -2.318359,-7.35157 z m 28.843763,26.72853 H -74.28319 c 0,-0.62706 -0.38472,-1.53572 -1.181641,-2 -0.718288,-0.41847 -1.66831,-0.65393 -3.132812,-0.80859 l -0.08789,-0.0488 c -1.13444,-1.35224 -2.821661,-2.14614 -4.603515,-2.14648 -1.768831,0.001 -3.434748,0.78436 -4.566407,2.11914 l -0.15625,0.0801 c -1.444584,0.15496 -2.383043,0.38973 -3.095703,0.80468 -0.797193,0.4642 -1.18164,1.37283 -1.18164,2 h -10.287112 l -2.46113,-18.23824 c -0.0131,-0.42627 0.31275,-0.76172 0.75391,-0.76172 l 9.560724,-1.1e-4 c 0.334085,2.38814 1.007665,5.11576 2.529297,7.41016 1.715161,2.58618 4.61397,4.55469 8.904297,4.55469 4.290323,0 7.193042,-1.96851 8.908203,-4.55469 1.521628,-2.2944 2.197171,-5.02202 2.53125,-7.41016 h 9.560547 c 0.44313,0 0.770088,0.33858 0.753906,0.76758 z m -37.529306,-16.05275 c -0.0748,-0.007 -0.15013,-0.006 -0.22461,0.004 -0.54932,0.0747 -0.93307,0.58195 -0.85547,1.13086 l 1.69726,12.54883 c 0.0748,0.54497 0.57572,0.92719 1.121098,0.85547 0.545753,-0.0738 0.929081,-0.57505 0.857421,-1.12109 l -1.699219,-12.54883 c -0.059,-0.4636 -0.43127,-0.8245 -0.89648,-0.86914 z m 18.238278,13.04883 h 0.0059 c 1.307516,0.002 2.532402,0.64712 3.279297,1.7207 0.171288,0.24302 0.441906,0.39637 0.738281,0.41992 1.622699,0.14173 2.489709,0.41088 2.796875,0.58984 0.307162,0.17878 0.183594,0.0576 0.183594,0.27344 v 5.99414 c 0,0.57124 -0.432672,1.00391 -1.003906,1.00391 h -11.994141 c -0.571227,0 -1.003906,-0.43267 -1.003906,-1.00391 v -5.99414 c 0,-0.21581 -0.123871,-0.0943 0.183593,-0.27344 0.307427,-0.17914 1.181082,-0.44799 2.804688,-0.58984 0.293707,-0.0265 0.562751,-0.17867 0.732422,-0.41992 0.746581,-1.07312 1.970379,-1.71772 3.277344,-1.7207 z m -19.015628,5.0039 h 10.015628 v 2.4961 h -9.677738 z m 28.021487,0 h 10.015625 l -0.337891,2.4961 h -9.677734 z m -27.414067,4.4961 h 9.451176 c 0.24243,1.41077 1.488756,2.50195 2.962891,2.50195 h 11.994141 c 1.474137,0 2.720461,-1.09118 2.96289,-2.50195 h 9.449219 l -1,7.39648 c -0.164069,1.21425 -1.186851,2.10352 -2.412109,2.10352 h -8.484376 c -1.185659,-2.40217 -3.667215,-4.05274 -6.515624,-4.05274 -2.848156,0 -5.32499,1.65092 -6.509766,4.05274 h -8.490234 c -1.225263,0 -2.244118,-0.88927 -2.408208,-2.10352 z m 3.431645,1.60351 c -0.07421,-0.006 -0.148892,-0.004 -0.222656,0.006 -0.549236,0.0737 -0.933785,0.58003 -0.857422,1.12891 l 0.318359,2.37109 c 0.183874,1.36365 1.362314,2.39063 2.738282,2.39063 h 1.003906 c 0.54924,-0.002 0.993956,-0.44686 0.996094,-0.9961 0.0022,-0.55228 -0.44381,-1.00175 -0.996094,-1.0039 h -1.003906 c -0.389976,0 -0.701795,-0.26987 -0.753907,-0.65625 l -0.316406,-2.37696 c -0.0624,-0.4646 -0.439165,-0.8235 -0.90625,-0.86328 z"
         transform="matrix(0.26458334,0,0,0.26458334,0,280.06666)"
         sodipodi:nodetypes="cccccsccccccccccccccccccccccccccscccccccsccccccccccccccccccccccccccccscccccccccccccccccccccccccsccsccscssccccccsccccscccccscccccssscsccccccccccccscccsssssssccccccccccccccccsscccscscsccccccscscscccc" />
    </g>
  </g>
</svg>
