<svg xmlns="http://www.w3.org/2000/svg" viewBox="0 0 128 128"><title>Pineapple</title><g id="Pineapple"><g id="Pineapple-2" data-name="Pineapple"><path d="M37.53,87.85c.09,21.13,8,38.23,26.08,38.15,16.9-.07,25.84-17.25,25.75-38.38S82.63,49.38,63.28,49.47C45.23,49.55,37.43,66.71,37.53,87.85Z" fill="#f9c903"/><path d="M65.63,79.23a3.5,3.5,0,0,0-.76.55c0-.19,0-.37,0-.56a6.89,6.89,0,0,0-.28-2,5.49,5.49,0,0,0-1-2,5.49,5.49,0,0,0-1,2,6.89,6.89,0,0,0-.28,2c0,.21,0,.42,0,.62a3.48,3.48,0,0,0-.74-.43,3.63,3.63,0,0,0-1.71-.29,3.69,3.69,0,0,0,.24,1.73,3.64,3.64,0,0,0,2,2,3.69,3.69,0,0,0,1.53.29h.17a3.68,3.68,0,0,0,1.68-.44,3.67,3.67,0,0,0,1.78-2.18,3.7,3.7,0,0,0,.1-1.74A3.65,3.65,0,0,0,65.63,79.23Z" fill="#eba013"/><path d="M65.63,96.71a3.5,3.5,0,0,0-.76.55c0-.19,0-.37,0-.56a6.89,6.89,0,0,0-.28-2,5.49,5.49,0,0,0-1-2,5.49,5.49,0,0,0-1,2,6.89,6.89,0,0,0-.28,2c0,.21,0,.42,0,.62a3.48,3.48,0,0,0-.74-.43,3.63,3.63,0,0,0-1.71-.29,3.69,3.69,0,0,0,.24,1.73,3.64,3.64,0,0,0,2,2,3.69,3.69,0,0,0,1.53.29h.17a3.68,3.68,0,0,0,1.68-.44A3.67,3.67,0,0,0,67.22,98a3.7,3.7,0,0,0,.1-1.74A3.65,3.65,0,0,0,65.63,96.71Z" fill="#eba013"/><path d="M65.63,113.37a3.5,3.5,0,0,0-.76.55c0-.19,0-.37,0-.56a6.89,6.89,0,0,0-.28-2,5.49,5.49,0,0,0-1-2,5.49,5.49,0,0,0-1,2,6.89,6.89,0,0,0-.28,2c0,.21,0,.42,0,.62a3.48,3.48,0,0,0-.74-.43,3.63,3.63,0,0,0-1.71-.29A3.69,3.69,0,0,0,60.1,115a3.64,3.64,0,0,0,2,2,3.69,3.69,0,0,0,1.53.29h.17a3.68,3.68,0,0,0,1.68-.44,3.67,3.67,0,0,0,1.78-2.18,3.7,3.7,0,0,0,.1-1.74A3.65,3.65,0,0,0,65.63,113.37Z" fill="#eba013"/><path d="M52,70.49a3.5,3.5,0,0,0-.76.55c0-.19,0-.37,0-.56a6.89,6.89,0,0,0-.28-2,5.49,5.49,0,0,0-1-2,5.49,5.49,0,0,0-1,2,6.89,6.89,0,0,0-.28,2c0,.21,0,.42,0,.62a3.48,3.48,0,0,0-.74-.43,3.63,3.63,0,0,0-1.71-.29,3.69,3.69,0,0,0,.24,1.73,3.64,3.64,0,0,0,2,2,3.69,3.69,0,0,0,1.53.29h.17A3.68,3.68,0,0,0,51.78,74a3.67,3.67,0,0,0,1.78-2.18,3.7,3.7,0,0,0,.1-1.74A3.65,3.65,0,0,0,52,70.49Z" fill="#eba013"/><path d="M52,88a3.5,3.5,0,0,0-.76.55c0-.19,0-.37,0-.56a6.89,6.89,0,0,0-.28-2,5.49,5.49,0,0,0-1-2,5.49,5.49,0,0,0-1,2,6.89,6.89,0,0,0-.28,2c0,.21,0,.42,0,.62a3.48,3.48,0,0,0-.74-.43,3.63,3.63,0,0,0-1.71-.29,3.69,3.69,0,0,0,.24,1.73,3.64,3.64,0,0,0,2,2,3.69,3.69,0,0,0,1.53.29h.17a3.68,3.68,0,0,0,1.68-.44,3.67,3.67,0,0,0,1.78-2.18,3.7,3.7,0,0,0,.1-1.74A3.65,3.65,0,0,0,52,88Z" fill="#eba013"/><path d="M52,104.62a3.5,3.5,0,0,0-.76.55c0-.19,0-.37,0-.56a6.89,6.89,0,0,0-.28-2,5.49,5.49,0,0,0-1-2,5.49,5.49,0,0,0-1,2,6.89,6.89,0,0,0-.28,2c0,.21,0,.42,0,.62a3.48,3.48,0,0,0-.74-.43,3.63,3.63,0,0,0-1.71-.29,3.69,3.69,0,0,0,.24,1.73,3.64,3.64,0,0,0,2,2,3.69,3.69,0,0,0,1.53.29h.17a3.68,3.68,0,0,0,1.68-.44,3.67,3.67,0,0,0,1.78-2.18,3.7,3.7,0,0,0,.1-1.74A3.65,3.65,0,0,0,52,104.62Z" fill="#eba013"/><path d="M74.54,73.31a3.6,3.6,0,0,0,1.18.81,3.69,3.69,0,0,0,1.53.29h.17A3.68,3.68,0,0,0,79.1,74a3.67,3.67,0,0,0,1.78-2.18A3.7,3.7,0,0,0,81,70a3.65,3.65,0,0,0-1.68.44,3.5,3.5,0,0,0-.76.55c0-.19,0-.37,0-.56a6.89,6.89,0,0,0-.28-2,5.49,5.49,0,0,0-1-2,5.49,5.49,0,0,0-1,2,6.89,6.89,0,0,0-.28,2c0,.21,0,.42,0,.62a3.48,3.48,0,0,0-.74-.43,3.63,3.63,0,0,0-1.71-.29,3.69,3.69,0,0,0,.24,1.73A3.57,3.57,0,0,0,74.54,73.31Z" fill="#eba013"/><path d="M48.22,57.87a4.1,4.1,0,0,0,1.7.33h.19A4.09,4.09,0,0,0,52,57.71a4.08,4.08,0,0,0,2-2.42,4.11,4.11,0,0,0,.11-1.94,4.05,4.05,0,0,0-1.87.49,3.89,3.89,0,0,0-.85.61c0-.21,0-.41,0-.62a8.23,8.23,0,0,0-.08-1.1,21.89,21.89,0,0,0-4.66,3.92c.09.11.18.22.28.32A4,4,0,0,0,48.22,57.87Z" fill="#eba013"/><path d="M75.83,54.52A3.86,3.86,0,0,0,75,54a4,4,0,0,0-1.9-.32,4.1,4.1,0,0,0,.27,1.92,4,4,0,0,0,2.17,2.24,4.1,4.1,0,0,0,1.7.33h.19a4.09,4.09,0,0,0,1.87-.49,4,4,0,0,0,1.23-1l.08-.11a20.86,20.86,0,0,0-4.73-3.93,8.18,8.18,0,0,0-.09,1.18C75.8,54.06,75.81,54.29,75.83,54.52Z" fill="#eba013"/><path d="M74.54,90.8a3.6,3.6,0,0,0,1.18.81,3.69,3.69,0,0,0,1.53.29h.17a3.68,3.68,0,0,0,1.68-.44,3.67,3.67,0,0,0,1.78-2.18,3.7,3.7,0,0,0,.1-1.74,3.65,3.65,0,0,0-1.68.44,3.5,3.5,0,0,0-.76.55c0-.19,0-.37,0-.56a6.89,6.89,0,0,0-.28-2,5.49,5.49,0,0,0-1-2,5.49,5.49,0,0,0-1,2,6.89,6.89,0,0,0-.28,2c0,.21,0,.42,0,.62a3.48,3.48,0,0,0-.74-.43,3.63,3.63,0,0,0-1.71-.29,3.69,3.69,0,0,0,.24,1.73A3.57,3.57,0,0,0,74.54,90.8Z" fill="#eba013"/><path d="M80.21,107.2a3.6,3.6,0,0,0,.67-1.27,3.7,3.7,0,0,0,.1-1.74,3.65,3.65,0,0,0-1.68.44,3.5,3.5,0,0,0-.76.55c0-.19,0-.37,0-.56a6.89,6.89,0,0,0-.28-2,5.49,5.49,0,0,0-1-2,5.49,5.49,0,0,0-1,2,6.89,6.89,0,0,0-.28,2c0,.21,0,.42,0,.62a3.48,3.48,0,0,0-.74-.43,3.63,3.63,0,0,0-1.71-.29,3.69,3.69,0,0,0,.24,1.73,3.64,3.64,0,0,0,2,2,3.69,3.69,0,0,0,1.53.29h.17a3.68,3.68,0,0,0,1.68-.44A3.63,3.63,0,0,0,80.21,107.2Z" fill="#eba013"/><path d="M85.47,64.46h0q-.33-.79-.69-1.54h0a4.63,4.63,0,0,0,.18.63A3.9,3.9,0,0,0,85.47,64.46Z" fill="#eba013"/><path d="M87.71,77a7.65,7.65,0,0,0-.31,2.19c0,.23,0,.46,0,.69a3.86,3.86,0,0,0-.82-.48,4,4,0,0,0-1.9-.32A4.1,4.1,0,0,0,85,81a4,4,0,0,0,2.17,2.24,4.1,4.1,0,0,0,1.7.33H89l.23,0h0q0-1-.12-2.06v-.1q-.07-1-.16-1.94v-.14q-.09-1-.21-1.89v-.11q-.13-1-.28-1.94A6.46,6.46,0,0,0,87.71,77Z" fill="#eba013"/><path d="M87.71,93.69a7.65,7.65,0,0,0-.31,2.19c0,.23,0,.46,0,.69a3.86,3.86,0,0,0-.82-.48,4,4,0,0,0-1.9-.32A4.1,4.1,0,0,0,85,97.68a4,4,0,0,0,2.17,2.24,4.14,4.14,0,0,0,1.11.29,62.38,62.38,0,0,0,1-8.16h0a5.74,5.74,0,0,0-.4-.55A6.1,6.1,0,0,0,87.71,93.69Z" fill="#eba013"/><path d="M40.38,82.09a4,4,0,0,0,.75-1.41,4.11,4.11,0,0,0,.11-1.94,4.05,4.05,0,0,0-1.87.49,3.89,3.89,0,0,0-.85.61c0-.21,0-.41,0-.62a7.67,7.67,0,0,0-.3-2.16h0q-.11.78-.21,1.58h0q-.28,2.4-.4,4.9h0a4.12,4.12,0,0,0,1.52-.46A4,4,0,0,0,40.38,82.09Z" fill="#eba013"/><path d="M40.38,98.74a4,4,0,0,0,.75-1.41,4.11,4.11,0,0,0,.11-1.94,4.05,4.05,0,0,0-1.87.49,3.89,3.89,0,0,0-.85.61c0-.21,0-.41,0-.62a7.65,7.65,0,0,0-.31-2.19,6.81,6.81,0,0,0-.55-1.34q.06,1,.14,2h0q.08,1,.19,1.92v0q.11.94.24,1.87v0q.14.93.3,1.85h0a4.68,4.68,0,0,0,.59-.25A4,4,0,0,0,40.38,98.74Z" fill="#eba013"/><path d="M78.57,119.1a6.1,6.1,0,0,0-1.13-2.19,6.1,6.1,0,0,0-1.14,2.19,7.65,7.65,0,0,0-.31,2.19c0,.23,0,.46,0,.69a3.86,3.86,0,0,0-.82-.48,4,4,0,0,0-1.9-.32,4.1,4.1,0,0,0,.27,1.92,3.92,3.92,0,0,0,.2.43l.66-.37h0l.62-.38,0,0,.6-.39,0,0,.59-.42,0,0,.6-.46h0a23.12,23.12,0,0,0,1.76-1.55A7.12,7.12,0,0,0,78.57,119.1Z" fill="#eba013"/><path d="M54.06,120.8a4.05,4.05,0,0,0-1.87.49,3.89,3.89,0,0,0-.85.61c0-.21,0-.41,0-.62a7.65,7.65,0,0,0-.31-2.19,6.1,6.1,0,0,0-1.13-2.19,6.1,6.1,0,0,0-1.14,2.19,7.33,7.33,0,0,0-.27,1.45q.55.49,1.13.95l0,0q.58.45,1.18.85h0a20.77,20.77,0,0,0,2.57,1.47h0a4,4,0,0,0,.52-1.1A4.11,4.11,0,0,0,54.06,120.8Z" fill="#eba013"/><path d="M66,62.51a3.5,3.5,0,0,0-.76.55c0-.19,0-.37,0-.56a6.89,6.89,0,0,0-.28-2,5.49,5.49,0,0,0-1-2,5.49,5.49,0,0,0-1,2,6.89,6.89,0,0,0-.28,2c0,.21,0,.42,0,.62A3.48,3.48,0,0,0,62,62.7a3.63,3.63,0,0,0-1.71-.29,3.69,3.69,0,0,0,.24,1.73,3.64,3.64,0,0,0,2,2,3.69,3.69,0,0,0,1.53.29h.17A3.68,3.68,0,0,0,65.85,66a3.67,3.67,0,0,0,1.78-2.18,3.7,3.7,0,0,0,.1-1.74A3.65,3.65,0,0,0,66,62.51Z" fill="#eba013"/><path d="M40.55,67.33Q40,69,39.49,70.81q5.58-3.23,11-6.59,5.33,3.68,10.8,7.24Q55.8,75,50.15,78.37,44.72,74.73,39.45,71q-.33,1.27-.6,2.59,4.43,3.15,8.95,6.22-5.06,3-10.25,5.9,0,1.08,0,2.18t0,2.47q4.8,3.31,9.7,6.54-4.17,2.39-8.43,4.71.27,1.29.58,2.54,5.15-2.81,10.19-5.72,5.69,3.69,11.53,7.26-5.87,3.51-11.89,6.89-4.61-2.91-9.11-5.91a41.27,41.27,0,0,0,1.48,4q2.55,1.67,5.13,3.31l-2.62,1.43q.7,1.08,1.47,2.07c1.19-.65,2.39-1.3,3.57-2q5.87,3.69,11.89,7.26c-1.39.8-2.79,1.6-4.18,2.39a23.22,23.22,0,0,0,3.84.72l2.85-1.64,2.79,1.61A21.57,21.57,0,0,0,70.1,125c-1.34-.76-2.68-1.52-4-2.29q6-3.57,11.89-7.26l3.13,1.72q.77-1,1.47-2.07l-2.17-1.19c1.48-.94,2.94-1.89,4.4-2.84A40.8,40.8,0,0,0,86.45,107q-4.24,2.8-8.55,5.54-6-3.38-11.89-6.89,5.84-3.57,11.53-7.26,4.87,2.81,9.85,5.53.33-1.24.61-2.53-4.09-2.24-8.11-4.54,4.77-3.13,9.42-6.35.05-1.43,0-2.89,0-1.07,0-2.12-5-2.82-9.95-5.72,4.44-3,8.77-6.09-.25-1.34-.56-2.62Q82.38,74.77,77,78.37,71.37,75,65.86,71.46q5.48-3.56,10.8-7.24,5.35,3.3,10.84,6.49-.44-1.77-1-3.44Q82.66,65,78.87,62.69c1.39-1,2.77-2,4.15-2.95q-.67-1-1.42-2-2.49,1.78-5,3.53-5.48-3.4-10.8-6.91,2.78-1.87,5.52-3.78a23.71,23.71,0,0,0-3.2-.76q-2.25,1.54-4.52,3.07Q61.3,51.38,59,49.83a22.44,22.44,0,0,0-3.17.78q2.73,1.9,5.51,3.77-5.33,3.51-10.8,6.91-2.48-1.72-4.93-3.47-.75.94-1.44,2c1.36,1,2.72,1.94,4.09,2.9Q44.47,65,40.55,67.33ZM38.55,88q5.84-3.27,11.52-6.66Q55.58,85,61.23,88.56q-5.69,3.51-11.53,6.9Q44.05,91.78,38.55,88Zm36.93,26.1q-5.87,3.67-11.89,7.21-6-3.54-11.89-7.21,6-3.41,11.89-6.95Q69.46,110.67,75.47,114.08Zm-11.89-9.88Q57.75,100.65,52.06,97q5.84-3.41,11.53-7,5.69,3.54,11.52,7Q69.43,100.65,63.59,104.19ZM77.1,81.31Q82.79,84.7,88.63,88q-5.5,3.8-11.16,7.49-5.84-3.39-11.53-6.9Q71.6,85,77.1,81.31ZM74.75,79.9q-5.5,3.66-11.16,7.2-5.66-3.54-11.17-7.2,5.66-3.42,11.17-7Q69.09,76.48,74.75,79.9ZM63.59,55.84q5.32,3.54,10.8,7Q69.06,66.46,63.59,70q-5.48-3.54-10.81-7.19Q58.26,59.38,63.59,55.84Z" fill="#ffde70"/><path d="M89.36,87.62c.1,21.13-8.86,38.3-25.75,38.38a21.74,21.74,0,0,1-18.54-9.3c4,3.8,9.16,3.38,15.64,3.36,16.9-.07,23.23-14.64,23.14-35.77,0-11.61.54-22-4.48-29C86.52,62,89.3,74,89.36,87.62Z" fill="#dea500" opacity="0.5"/><path d="M48.76,26.86A63.63,63.63,0,0,0,32,20.93c7.31-3.72,14.26-3.46,20-1-2.57-5.66-5.71-11.13-9.19-14.22,7.48.67,13.09,8.86,17,17.66.39-7.64,1.92-16,5.46-21.41,3,4.5,3.41,13.23,3,21.09C72.14,14.37,77.65,6.29,85,5.57c-3.46,3.12-6.55,8.62-9.07,14.3,5.74-2.55,12.69-2.87,20,.78a63.52,63.52,0,0,0-16.71,6.07c6,.13,15.72,5.77,15.76,14.8,0,1-9.08-5.7-15.59-5.67a14.34,14.34,0,0,0-9.59,3.81,14.18,14.18,0,0,1,8.3-2.76c8.46,0,15.34,7.53,15.38,16.89,0,.94-6.62-6.23-12.71-7.55a17.45,17.45,0,0,1,7,14.19c0,1-8.05-7.79-14.56-7.76,1.45,2.86-2.56,12-3.21,13.95-.64-3.82-6-8.58-6.17-9.64-2.51,2.48-5,5.87-5.62,9.69-.67-1.89-5-11.73-3.34-13.92-6.51,0-14.49,8.93-14.5,7.89a17.46,17.46,0,0,1,6.91-14.25c-6.08,1.37-12.65,8.6-12.65,7.67,0-9.37,6.78-17,15.23-17a14.19,14.19,0,0,1,8.32,2.68A14.35,14.35,0,0,0,48.67,36c-6.51,0-15.54,6.84-15.54,5.81C33.09,32.76,42.72,27,48.76,26.86Z" fill="#23867e"/><path d="M69.71,48.36c-4.17-2-8.32-3.09-11.42.57,0,0,4.64,10.6,5.81,12.61C64.54,57.66,69.71,48.36,69.71,48.36Z" fill="#1e756e"/><path d="M70.34,34.86c-4.17-2-8.32-3.1-11.41.57,0,0,4.62,6.72,5.79,8.73C66.17,43.75,70.34,34.86,70.34,34.86Z" fill="#1e756e"/><path d="M69.6,22.46c-4.17-1.35-8.31-2.11-11.41.41,0,0,4.61,4.62,5.78,6C65.42,28.58,69.6,22.46,69.6,22.46Z" fill="#1e756e"/></g></g></svg>