<?xml  version="1.0" encoding="utf-8"?>
<!-- Svg Vector Icons : http://www.onlinewebfonts.com/icon -->
<!DOCTYPE svg PUBLIC "-//W3C//DTD SVG 1.1//EN" "http://www.w3.org/Graphics/SVG/1.1/DTD/svg11.dtd">
<svg width="400" height="400" version="1.1" xmlns="http://www.w3.org/2000/svg" xmlns:xlink="http://www.w3.org/1999/xlink" x="0px" y="0px" viewBox="0 0 1000 1000" enable-background="new 0 0 1000 1000" xml:space="preserve">
<metadata> Svg Vector Icons : http://www.onlinewebfonts.com/icon </metadata>
<g fill-rule="nonzero"><g transform="translate(0.000000,511.000000) scale(0.100000,-0.100000)"><path d="M6203.4,4957.1c-64.7-58.8,11.8,190.2-1325.2-4361.7L4788,289.5l-1668.2-939c-1762.3-990-1832.9-1035.1-2107.4-1329.1c-709.6-760.6-705.7-1607.5,15.7-2325c260.7-260.7,548.9-409.7,909.6-470.5c194.1-33.3,646.9-11.8,844.9,39.2c160.8,43.1,376.4,115.6,411.7,139.2c37.2,27.5,2611.2,1397.7,3577.6,1907.4c123.5,64.7,264.6,145.1,313.7,176.4c378.3,252.9,701.8,688.1,921.4,1237c31.4,80.4,149,470.5,262.7,868.4c113.7,396,439.1,1544.7,725.3,2548.4c286.2,1005.6,521.4,1850.6,521.4,1878c0,25.5-23.5,74.5-52.9,107.8c-58.8,64.7-9.8,49-1348.7,411.7c-247,66.7-741,200-1093.9,296c-354.8,96.1-670.4,174.5-701.8,174.5C6285.8,5010,6238.7,4988.4,6203.4,4957.1z M6662.1,4498.3c88.2-23.5,164.7-49,172.5-54.9c11.7-9.8-74.5-339.1-131.3-503.8c-3.9-15.7-62.7-7.8-190.2,27.4c-100,27.5-184.3,51-188.2,52.9c-3.9,3.9,119.6,437.2,143.1,496C6479.8,4547.4,6477.9,4547.4,6662.1,4498.3z M7426.7,4290.6c66.7-17.6,121.5-33.3,123.5-33.3c5.9-3.9-147-505.8-156.8-515.6c-11.8-9.8-252.9,51-272.5,68.6c-7.8,7.9,19.6,125.5,58.8,264.6c49,176.4,78.4,249,100,249C7295.3,4323.9,7362,4310.2,7426.7,4290.6z M8130.4,4100.4c60.8-17.6,111.7-37.2,111.7-43.1c0-13.7-141.2-486.2-149-501.8c-7.9-13.7-254.8,49-276.4,68.6c-5.9,7.8,21.6,127.4,62.7,268.6c60.8,203.9,82.3,252.9,105.9,247C8003,4135.7,8067.7,4116.1,8130.4,4100.4z M8857.7,3904.4c94.1-27.4,176.4-51,180.3-54.9c5.9-5.9-125.4-499.9-139.2-519.5c-2-5.9-388.1,94.1-397.9,101.9c-5.9,3.9,113.7,411.7,143.1,496C8655.8,3959.3,8655.8,3959.3,8857.7,3904.4z M6634.7,3500.5c209.7-56.8,537.1-145.1,725.3-196c188.2-51,584.2-156.8,878.2-235.2c292.1-80.4,533.2-152.9,533.2-164.7c0-11.8-198-711.6-437.1-1556.5L7897.1-186.8l-205.8-9.8c-750.8-35.3-1284-335.2-1646.7-919.4c-221.5-358.7-337.2-803.7-366.6-1425.2l-13.7-258.8l-1242.9-662.6c-684.2-364.6-1250.7-656.7-1258.5-648.8c-23.5,25.5-1272.3,2256.3-1272.3,2274c0,9.8,719.4,421.5,1601.6,917.5C4466.5-371.1,5105.6,1.3,5127.2,30.7c19.6,27.5,266.6,833.2,546.9,1793.7c280.3,960.6,515.6,1756.5,519.5,1772.1c5.9,13.7,21.6,21.6,35.3,15.7C6240.7,3608.4,6424.9,3557.4,6634.7,3500.5z M7771.7-622c0-3.9-25.5-100-58.8-215.6c-150.9-535.2-437.1-1005.6-768.4-1258.5c-115.6-88.2-790-460.7-833.1-460.7c-21.6,0-9.8,262.7,23.5,490.1C6236.7-1365,6601.4-892.6,7191.4-704.4c84.3,27.5,199.9,56.9,254.9,66.7C7546.2-620.1,7771.7-610.3,7771.7-622z M2153.3-3174.4c341.1-609.7,615.5-1115.4,609.7-1125.2c-5.9-9.8-94.1-33.3-198-50.9c-515.6-94.1-991.9,52.9-1305.6,401.9c-421.5,466.5-458.7,976.2-107.8,1489.9c64.7,92.1,343.1,392.1,366.6,392.1C1524.1-2066.8,1810.3-2564.7,2153.3-3174.4z"/></g></g>
<img src="" alt=""></svg>
